<?xml version="1.0" encoding="UTF-8" standalone="no"?>
<!-- Created with Inkscape (http://www.inkscape.org/) -->

<svg
   xmlns:dc="http://purl.org/dc/elements/1.1/"
   xmlns:cc="http://creativecommons.org/ns#"
   xmlns:rdf="http://www.w3.org/1999/02/22-rdf-syntax-ns#"
   xmlns:svg="http://www.w3.org/2000/svg"
   xmlns="http://www.w3.org/2000/svg"
   xmlns:xlink="http://www.w3.org/1999/xlink"
   xmlns:sodipodi="http://sodipodi.sourceforge.net/DTD/sodipodi-0.dtd"
   xmlns:inkscape="http://www.inkscape.org/namespaces/inkscape"
   inkscape:version="0.48.5 r10040"
   version="1.1"
   id="svg2"
   height="512"
   width="512"
   sodipodi:docname="logo.svg"
   inkscape:export-filename="/Users/johnfeusi/git/opening-trainer/src/logo.png"
   inkscape:export-xdpi="90"
   inkscape:export-ydpi="90">
  <sodipodi:namedview
     id="base"
     pagecolor="#ffffff"
     bordercolor="#666666"
     borderopacity="1.0"
     inkscape:pageopacity="0.0"
     inkscape:pageshadow="2"
     inkscape:zoom="0.16"
     inkscape:cx="-267.20272"
     inkscape:cy="812.54753"
     inkscape:document-units="px"
     inkscape:current-layer="layer1"
     showgrid="true"
     inkscape:window-width="1275"
     inkscape:window-height="687"
     inkscape:window-x="0"
     inkscape:window-y="1"
     inkscape:window-maximized="0" />
  <defs
     id="defs4">
    <linearGradient
       id="linearGradient6731">
      <stop
         style="stop-color:#000000;stop-opacity:0.23529412;"
         offset="0"
         id="stop6733" />
      <stop
         style="stop-color:#000000;stop-opacity:0;"
         offset="1"
         id="stop6735" />
    </linearGradient>
    <linearGradient
       inkscape:collect="always"
       xlink:href="#linearGradient6731"
       id="linearGradient6737"
       x1="231.19533"
       y1="194.42299"
       x2="532.38489"
       y2="495.61255"
       gradientUnits="userSpaceOnUse"
       gradientTransform="translate(0.25,-0.24996621)" />
    <clipPath
       clipPathUnits="userSpaceOnUse"
       id="clipPath6789">
      <rect
         style="fill:#428bca;fill-opacity:1;fill-rule:nonzero;stroke:#000000;stroke-width:0.5;stroke-linecap:round;stroke-linejoin:round;stroke-miterlimit:4;stroke-dasharray:none"
         id="rect6791"
         width="512"
         height="512"
         x="0.25"
         y="540.11218" />
    </clipPath>
    <linearGradient
       inkscape:collect="always"
       xlink:href="#linearGradient6731"
       id="linearGradient6827"
       gradientUnits="userSpaceOnUse"
       gradientTransform="translate(0.25,-0.24996621)"
       x1="231.19533"
       y1="194.42299"
       x2="532.38489"
       y2="495.61255" />
    <linearGradient
       inkscape:collect="always"
       xlink:href="#linearGradient6731"
       id="linearGradient6833"
       gradientUnits="userSpaceOnUse"
       gradientTransform="translate(0,540.36223)"
       x1="231.19533"
       y1="194.42299"
       x2="532.38489"
       y2="495.61255" />
    <clipPath
       clipPathUnits="userSpaceOnUse"
       id="clipPath6886">
      <rect
         style="color:#000000;fill:#428bca;fill-opacity:1;fill-rule:nonzero;stroke:#428bca;stroke-width:0.5;stroke-linecap:round;stroke-linejoin:round;stroke-miterlimit:4;stroke-opacity:1;stroke-dasharray:none;stroke-dashoffset:0;marker:none;visibility:visible;display:inline;overflow:visible;enable-background:accumulate"
         id="rect6888"
         width="512"
         height="512"
         x="0.25"
         y="540.11218" />
    </clipPath>
    <linearGradient
       inkscape:collect="always"
       xlink:href="#linearGradient6731"
       id="linearGradient6890"
       gradientUnits="userSpaceOnUse"
       gradientTransform="translate(0.25,540.11223)"
       x1="231.19533"
       y1="194.42299"
       x2="532.38489"
       y2="495.61255" />
  </defs>
  <metadata
     id="metadata7">
    <rdf:RDF>
      <cc:Work
         rdf:about="">
        <dc:format>image/svg+xml</dc:format>
        <dc:type
           rdf:resource="http://purl.org/dc/dcmitype/StillImage" />
        <dc:title></dc:title>
      </cc:Work>
    </rdf:RDF>
  </metadata>
  <g
     transform="translate(0,-540.36218)"
     id="layer1"
     inkscape:groupmode="layer"
     inkscape:label="Layer 1">
    <g
       id="g6860"
       clip-path="url(#clipPath6886)"
       transform="translate(-0.25,0.24999738)">
      <path
         id="path3800"
         style="font-size:400px;font-style:normal;font-variant:normal;font-weight:normal;font-stretch:normal;line-height:125%;letter-spacing:0px;word-spacing:0px;fill:#000000;fill-opacity:1;stroke:none;font-family:Cabin;-inkscape-font-specification:Cabin"
         d="m 452.14375,858.3622 -34,0 0,76 -40,0 0,-76 -120.4,0 128.8,-204 31.6,0 0,169.6 34,0 0,34.4 m -74,-34.4 0,-101.6 -61.2,101.6 61.2,0 m -139.4875,12.4 -142.000001,0 c 4.266611,46.66672 28.799921,70.00003 73.600001,70 19.99986,3e-5 38.79984,-3.86663 56.4,-11.6 l 4.8,28.4 c -23.20016,10.13334 -45.06681,15.2 -65.6,15.2 -16.53344,0 -31.46675,-2.66667 -44.8,-8 -13.06673,-5.33332 -24.133384,-12.53331 -33.200001,-21.6 -9.066698,-9.3333 -16.000024,-20.26662 -20.8,-32.8 -4.800015,-12.79993 -7.200012,-26.53325 -7.2,-41.2 -1.2e-5,-14.13322 2.266652,-27.3332 6.8,-39.6 4.53331,-12.26651 10.933303,-22.79984 19.2,-31.6 8.26662,-9.06648 18.266611,-16.13314 30.000001,-21.2 11.99992,-5.33313 25.33324,-7.9998 40,-8 12.53321,2e-4 23.99987,1.86687 34.4,5.6 10.39985,3.73353 19.19984,9.20019 26.4,16.4 7.46649,7.20017 13.19982,16.00016 17.2,26.4 4.26648,10.13348 6.39981,21.60013 6.4,34.4 -1.9e-4,7.46678 -0.53353,13.86677 -1.6,19.2 m -83.6,-70 c -29.06675,1.7e-4 -47.46673,15.06682 -55.2,45.2 l 103.2,0 c -1.6e-4,-14.39986 -4.00015,-25.46652 -12,-33.2 -8.00014,-7.99983 -20.00012,-11.99983 -36,-12"
         inkscape:connector-curvature="0" />
      <rect
         style="color:#000000;fill:#337abf;fill-opacity:0.94117647000000004;fill-rule:nonzero;stroke:#337ab7;stroke-width:0.50000000000000000;stroke-linecap:round;stroke-linejoin:round;stroke-miterlimit:4;stroke-opacity:1;stroke-dasharray:none;stroke-dashoffset:0;marker:none;visibility:visible;display:inline;overflow:visible;enable-background:accumulate"
         id="rect3777"
         width="512"
         height="512"
         x="0"
         y="540.36218" />
      <path
         id="path5107"
         d="M 386.53125,654.3622 281.3125,821.0497 c -0.0687,-0.0668 -0.11848,-0.1522 -0.1875,-0.21875 -0.0688,-0.0688 -0.11839,-0.15025 -0.1875,-0.21875 -0.25967,-0.26506 -0.54838,-0.5203 -0.8125,-0.78125 -0.19566,-0.19972 -0.39556,-0.39636 -0.59375,-0.59375 -0.0308,-0.0316 -0.0629,-0.0622 -0.0937,-0.0937 -0.0318,-0.0317 -0.0619,-0.0621 -0.0937,-0.0937 -0.11843,-0.12088 -0.25565,-0.22372 -0.375,-0.34375 -0.0483,-0.0472 -0.0765,-0.10922 -0.125,-0.15625 -0.0614,-0.0634 -0.12587,-0.12435 -0.1875,-0.1875 -0.0314,-0.0313 -0.0623,-0.0625 -0.0937,-0.0937 -0.0465,-0.0474 -0.10963,-0.0777 -0.15625,-0.125 -0.14896,-0.15609 -0.28703,-0.31405 -0.4375,-0.46875 -0.0574,-0.0571 -0.0987,-0.13056 -0.15625,-0.1875 -0.19859,-0.20271 -0.42381,-0.39345 -0.625,-0.59375 -0.25655,-0.26357 -0.52033,-0.52172 -0.78125,-0.78125 -0.0476,-0.0476 -0.0772,-0.10876 -0.125,-0.15625 -0.19859,-0.20271 -0.42381,-0.39345 -0.625,-0.59375 -0.25655,-0.26357 -0.52033,-0.52172 -0.78125,-0.78125 -0.0423,-0.0423 -0.0826,-0.0828 -0.125,-0.125 -0.14932,-0.15242 -0.31796,-0.28644 -0.46875,-0.4375 -0.0483,-0.0471 -0.0765,-0.1093 -0.125,-0.15625 -0.0103,-0.0105 -0.021,-0.0207 -0.0312,-0.0312 -0.0418,-0.0418 -0.0831,-0.0833 -0.125,-0.125 -0.0362,-0.037 -0.0887,-0.0568 -0.125,-0.0937 -0.0399,-0.0432 -0.0849,-0.0819 -0.125,-0.125 -0.0723,-0.0731 -0.14606,-0.14593 -0.21875,-0.21875 -0.0314,-0.0305 -0.0623,-0.0633 -0.0937,-0.0937 -0.0152,-0.0162 -0.016,-0.0463 -0.0312,-0.0625 -0.0103,-0.0105 -0.021,-0.0207 -0.0312,-0.0312 -0.0414,-0.0414 -0.0835,-0.0837 -0.125,-0.125 -0.20596,-0.21023 -0.41624,-0.41735 -0.625,-0.625 -0.28029,-0.2874 -0.55826,-0.56116 -0.84375,-0.84375 -0.0258,-0.0263 -0.068,-0.0363 -0.0937,-0.0625 -0.17485,-0.18895 -0.35425,-0.37553 -0.53125,-0.5625 -0.031,-0.031 -0.0627,-0.0628 -0.0937,-0.0937 -0.0257,-0.0263 -0.068,-0.0363 -0.0937,-0.0625 -0.18484,-0.19974 -0.37527,-0.39622 -0.5625,-0.59375 -0.23901,-0.24476 -0.47596,-0.47748 -0.71875,-0.71875 -0.0259,-0.0259 -0.0366,-0.0679 -0.0625,-0.0937 -0.2344,-0.23926 -0.48073,-0.45159 -0.71875,-0.6875 -0.0154,-0.0158 -0.047,-0.0155 -0.0625,-0.0312 -0.19482,-0.21053 -0.39627,-0.41693 -0.59375,-0.625 -0.021,-0.0204 -0.0415,-0.0422 -0.0625,-0.0625 -0.45898,-0.48234 -0.93294,-0.93714 -1.40625,-1.40625 -0.21626,-0.22074 -0.43691,-0.43835 -0.65625,-0.65625 -0.0103,-0.0103 -0.0209,-0.0209 -0.0312,-0.0312 -0.22656,-0.23125 -0.45756,-0.45937 -0.6875,-0.6875 -0.21522,-0.20872 -0.43825,-0.41929 -0.65625,-0.625 -0.0159,-0.0154 -0.0153,-0.0472 -0.0312,-0.0625 -0.22756,-0.22755 -0.45674,-0.46341 -0.6875,-0.6875 -0.21716,-0.21715 -0.43618,-0.44226 -0.65625,-0.65625 -0.0101,-0.0106 -0.0211,-0.0206 -0.0312,-0.0312 -0.21716,-0.21715 -0.43618,-0.44226 -0.65625,-0.65625 -0.0102,-0.0106 -0.0211,-0.0206 -0.0312,-0.0312 -0.21168,-0.21167 -0.41055,-0.41632 -0.625,-0.625 -0.0103,-0.0105 -0.0209,-0.0207 -0.0312,-0.0312 -0.005,-0.005 -0.0263,0.005 -0.0312,0 -0.20935,-0.20329 -0.38177,-0.42456 -0.59375,-0.625 -0.0154,-0.0158 -0.047,-0.0155 -0.0625,-0.0312 -0.005,-0.005 0.005,-0.0258 0,-0.0312 -0.17464,-0.17463 -0.35473,-0.32741 -0.53125,-0.5 -0.0251,-0.0271 -0.0374,-0.0667 -0.0625,-0.0937 -0.0206,-0.021 -0.0419,-0.0415 -0.0625,-0.0625 -0.005,-0.005 -0.0263,0.005 -0.0312,0 -0.19862,-0.19288 -0.36151,-0.40343 -0.5625,-0.59375 -0.0206,-0.021 -0.0419,-0.0415 -0.0625,-0.0625 -0.21391,-0.22363 -0.43925,-0.43547 -0.65625,-0.65625 -0.18614,-0.18613 -0.37422,-0.37868 -0.5625,-0.5625 -0.0309,-0.0315 -0.0628,-0.0623 -0.0937,-0.0937 -0.17991,-0.17809 -0.34927,-0.35507 -0.53125,-0.53125 -0.0309,-0.0315 -0.0628,-0.0623 -0.0937,-0.0937 -0.009,-0.009 -0.0219,-0.0219 -0.0312,-0.0312 -0.005,-0.005 -0.0263,0.005 -0.0312,0 -0.0106,-0.0103 -0.0206,-0.021 -0.0312,-0.0312 -0.0107,-0.0101 -0.0205,-0.0211 -0.0312,-0.0312 -0.13999,-0.13933 -0.26506,-0.29948 -0.40625,-0.4375 -0.0412,-0.0421 -0.0837,-0.0831 -0.125,-0.125 -0.16736,-0.16735 -0.33092,-0.33453 -0.5,-0.5 -0.0412,-0.042 -0.0837,-0.0831 -0.125,-0.125 -0.009,-0.009 -0.0219,-0.0219 -0.0312,-0.0312 -0.005,-0.005 -0.0263,0.005 -0.0312,0 -0.0106,-0.0103 -0.0206,-0.021 -0.0312,-0.0312 -0.0107,-0.0101 -0.0205,-0.0211 -0.0312,-0.0312 -0.12962,-0.12901 -0.24434,-0.27835 -0.375,-0.40625 -0.0412,-0.042 -0.0837,-0.0831 -0.125,-0.125 -0.16546,-0.16546 -0.33285,-0.33637 -0.5,-0.5 -0.0412,-0.042 -0.0837,-0.0831 -0.125,-0.125 -0.0363,-0.0363 -0.0887,-0.0576 -0.125,-0.0937 -0.17323,-0.16789 -0.32497,-0.36531 -0.5,-0.53125 -0.47214,-0.49116 -0.98161,-0.96018 -1.46875,-1.4375 -0.065,-0.0703 -0.12219,-0.14877 -0.1875,-0.21875 -0.0627,-0.0609 -0.12459,-0.12683 -0.1875,-0.1875 -0.20111,-0.2011 -0.39014,-0.39535 -0.59375,-0.59375 -0.31699,-0.32088 -0.64519,-0.65393 -0.96875,-0.96875 -0.0721,-0.0736 -0.14632,-0.14549 -0.21875,-0.21875 -0.11646,-0.11645 -0.22646,-0.22821 -0.34375,-0.34375 -0.0721,-0.0736 -0.14632,-0.14549 -0.21875,-0.21875 -0.19649,-0.19648 -0.39487,-0.39985 -0.59375,-0.59375 -0.10992,-0.1111 -0.20179,-0.23337 -0.3125,-0.34375 -0.0764,-0.078 -0.1732,-0.14111 -0.25,-0.21875 -0.11127,-0.10986 -0.20044,-0.23462 -0.3125,-0.34375 -0.0782,-0.0798 -0.17142,-0.13933 -0.25,-0.21875 -0.10342,-0.10342 -0.20842,-0.2098 -0.3125,-0.3125 -0.0927,-0.0946 -0.188,-0.18717 -0.28125,-0.28125 -0.0954,-0.0941 -0.18523,-0.18768 -0.28125,-0.28125 -0.0824,-0.0841 -0.16717,-0.16632 -0.25,-0.25 -0.0776,-0.0776 -0.17199,-0.14152 -0.25,-0.21875 -0.0163,-0.0158 -0.0149,-0.0467 -0.0312,-0.0625 -0.0927,-0.0946 -0.188,-0.18717 -0.28125,-0.28125 -0.15906,-0.16417 -0.33925,-0.30613 -0.5,-0.46875 -0.0251,-0.0271 -0.0374,-0.0667 -0.0625,-0.0937 -0.0769,-0.0775 -0.14152,-0.17286 -0.21875,-0.25 -0.0968,-0.0988 -0.2151,-0.18304 -0.3125,-0.28125 -0.0777,-0.0767 -0.14065,-0.17367 -0.21875,-0.25 -0.10696,-0.10918 -0.23604,-0.20402 -0.34375,-0.3125 -0.0688,-0.0688 -0.1184,-0.15026 -0.1875,-0.21875 -0.10942,-0.11169 -0.23354,-0.20154 -0.34375,-0.3125 -0.0622,-0.0613 -0.12504,-0.12642 -0.1875,-0.1875 -0.11328,-0.11563 -0.22962,-0.2289 -0.34375,-0.34375 -0.0584,-0.0575 -0.0977,-0.13023 -0.15625,-0.1875 -0.16805,-0.17153 -0.36134,-0.33019 -0.53125,-0.5 -0.11328,-0.11563 -0.22962,-0.2289 -0.34375,-0.34375 -0.0519,-0.0511 -0.10423,-0.10531 -0.15625,-0.15625 -0.12358,-0.12614 -0.25042,-0.24979 -0.375,-0.375 -0.0423,-0.0423 -0.0826,-0.0829 -0.125,-0.125 -0.0506,-0.0517 -0.10544,-0.10472 -0.15625,-0.15625 -0.005,-0.005 -0.0263,0.005 -0.0312,0 -0.0104,-0.0101 -0.0208,-0.0212 -0.0312,-0.0312 -0.036,-0.0379 -0.0577,-0.0872 -0.0937,-0.125 -0.0205,-0.0211 -0.042,-0.0414 -0.0625,-0.0625 -0.0418,-0.0418 -0.0831,-0.0833 -0.125,-0.125 -0.0257,-0.0268 -0.068,-0.0357 -0.0937,-0.0625 -0.095,-0.10263 -0.18565,-0.21046 -0.28125,-0.3125 -0.16352,-0.16768 -0.33471,-0.33396 -0.5,-0.5 -0.031,-0.031 -0.0627,-0.0628 -0.0937,-0.0937 -0.13387,-0.13665 -0.27119,-0.27069 -0.40625,-0.40625 -0.0259,-0.0255 -0.0365,-0.0683 -0.0625,-0.0937 -0.15629,-0.15953 -0.31085,-0.31071 -0.46875,-0.46875 -0.1375,-0.14035 -0.29875,-0.26705 -0.4375,-0.40625 -0.0159,-0.0157 -0.0153,-0.0469 -0.0312,-0.0625 -0.1375,-0.14035 -0.29875,-0.26705 -0.4375,-0.40625 -0.0156,-0.0153 -0.0157,-0.0472 -0.0312,-0.0625 -0.14768,-0.15074 -0.31963,-0.28808 -0.46875,-0.4375 -0.15574,-0.15309 -0.31147,-0.31708 -0.46875,-0.46875 -0.14536,-0.14288 -0.2908,-0.29585 -0.4375,-0.4375 -0.0103,-0.0105 -0.0209,-0.0207 -0.0312,-0.0312 -0.13779,-0.14313 -0.26718,-0.29555 -0.40625,-0.4375 -0.005,-0.005 -0.0263,0.005 -0.0312,0 -0.14065,-0.14347 -0.26429,-0.29523 -0.40625,-0.4375 -0.009,-0.009 -0.0221,-0.0219 -0.0312,-0.0312 -0.005,-0.005 -0.0263,0.005 -0.0312,0 -0.13157,-0.13161 -0.24231,-0.27567 -0.375,-0.40625 -0.0157,-0.016 -0.0468,-0.0153 -0.0625,-0.0312 -0.12751,-0.12523 -0.24646,-0.25072 -0.375,-0.375 -0.0206,-0.021 -0.0419,-0.0415 -0.0625,-0.0625 -0.12459,-0.12247 -0.24942,-0.25344 -0.375,-0.375 -0.0309,-0.0315 -0.0628,-0.0623 -0.0937,-0.0937 -0.11108,-0.11107 -0.20066,-0.2335 -0.3125,-0.34375 -0.0201,-0.0205 -0.0424,-0.042 -0.0625,-0.0625 -0.005,-0.005 -0.0263,0.005 -0.0312,0 -0.10955,-0.11145 -0.20216,-0.23303 -0.3125,-0.34375 -0.0357,-0.0364 -0.0892,-0.0574 -0.125,-0.0937 -0.10533,-0.10522 -0.20645,-0.20794 -0.3125,-0.3125 -0.0412,-0.042 -0.0837,-0.0831 -0.125,-0.125 -0.0957,-0.0939 -0.18497,-0.18792 -0.28125,-0.28125 -0.0412,-0.042 -0.0837,-0.0831 -0.125,-0.125 -0.0883,-0.0867 -0.16119,-0.19501 -0.25,-0.28125 -0.12732,-0.12996 -0.27786,-0.24603 -0.40625,-0.375 -0.0618,-0.0631 -0.12546,-0.12466 -0.1875,-0.1875 -0.0732,-0.0732 -0.14522,-0.14591 -0.21875,-0.21875 -0.0618,-0.0631 -0.12546,-0.12466 -0.1875,-0.1875 -0.0624,-0.0612 -0.12488,-0.12657 -0.1875,-0.1875 -0.0721,-0.0736 -0.14632,-0.14549 -0.21875,-0.21875 -0.0371,-0.0371 -0.0878,-0.0567 -0.125,-0.0937 -0.006,-0.006 0.006,-0.0252 0,-0.0312 -0.0102,-0.0106 -0.021,-0.0207 -0.0312,-0.0312 -0.036,-0.0368 -0.0889,-0.057 -0.125,-0.0937 -0.0318,-0.0309 -0.0619,-0.0629 -0.0937,-0.0937 -0.0251,-0.0271 -0.0373,-0.0667 -0.0625,-0.0937 -0.0306,-0.0318 -0.0631,-0.062 -0.0937,-0.0937 -0.0824,-0.0841 -0.16717,-0.16632 -0.25,-0.25 -0.0418,-0.0418 -0.0831,-0.0833 -0.125,-0.125 -0.0824,-0.0841 -0.16717,-0.16632 -0.25,-0.25 -0.0411,-0.0411 -0.0838,-0.084 -0.125,-0.125 -0.23645,-0.24498 -0.47855,-0.47723 -0.71875,-0.71875 -0.0927,-0.0946 -0.188,-0.18717 -0.28125,-0.28125 -0.0211,-0.021 -0.0413,-0.0415 -0.0625,-0.0625 -0.10298,-0.10512 -0.20882,-0.20803 -0.3125,-0.3125 -0.0106,-0.0104 -0.0206,-0.0208 -0.0312,-0.0312 -0.10298,-0.10512 -0.20882,-0.20803 -0.3125,-0.3125 -0.0103,-0.0103 -0.0209,-0.0209 -0.0312,-0.0312 -0.0772,-0.0788 -0.17237,-0.14028 -0.25,-0.21875 -0.005,-0.005 -0.026,0.005 -0.0312,0 -0.0151,-0.0163 -0.0161,-0.0462 -0.0312,-0.0625 -0.01,-0.009 -0.0217,-0.022 -0.0312,-0.0312 -0.005,-0.005 0.005,-0.0258 0,-0.0312 -0.0734,-0.0734 -0.17625,-0.11445 -0.25,-0.1875 -0.0151,-0.0163 -0.0161,-0.0462 -0.0312,-0.0625 -0.007,-0.006 0.007,-0.025 0,-0.0312 -0.0102,-0.0106 -0.021,-0.0207 -0.0312,-0.0312 -0.0103,-0.0105 -0.0209,-0.0207 -0.0312,-0.0312 -0.0201,-0.0201 -0.0424,-0.0424 -0.0625,-0.0625 -0.005,-0.005 -0.0263,0.005 -0.0312,0 -0.0361,-0.036 -0.0888,-0.0578 -0.125,-0.0937 -0.0151,-0.0163 -0.0161,-0.0462 -0.0312,-0.0625 -0.0101,-0.01 -0.0211,-0.0215 -0.0312,-0.0312 -0.0255,-0.0267 -0.037,-0.0671 -0.0625,-0.0937 -0.0464,-0.0464 -0.10967,-0.0787 -0.15625,-0.125 -0.0499,-0.0539 -0.10615,-0.10246 -0.15625,-0.15625 -0.01,-0.009 -0.0216,-0.0221 -0.0312,-0.0312 -0.005,-0.006 0.005,-0.0257 0,-0.0312 -0.0835,-0.0835 -0.16607,-0.16697 -0.25,-0.25 -0.005,-0.005 -0.0263,0.005 -0.0312,0 -0.009,-0.01 -0.022,-0.0216 -0.0312,-0.0312 -0.005,-0.005 0.005,-0.0258 0,-0.0312 -0.0102,-0.0106 -0.021,-0.0207 -0.0312,-0.0312 -0.074,-0.074 -0.14443,-0.14514 -0.21875,-0.21875 -0.0309,-0.0315 -0.0628,-0.0623 -0.0937,-0.0937 -0.005,-0.005 -0.0262,0.005 -0.0312,0 -0.065,-0.0703 -0.12219,-0.14877 -0.1875,-0.21875 -0.0257,-0.0263 -0.068,-0.0363 -0.0937,-0.0625 -0.0151,-0.0163 -0.0161,-0.0462 -0.0312,-0.0625 -0.10327,-0.10616 -0.20852,-0.20699 -0.3125,-0.3125 -0.0516,-0.0516 -0.10444,-0.10478 -0.15625,-0.15625 -0.0515,-0.0526 -0.10458,-0.10385 -0.15625,-0.15625 -0.0421,-0.0421 -0.0828,-0.083 -0.125,-0.125 -0.005,-0.005 -0.0261,0.005 -0.0312,0 -0.075,-0.0811 -0.14335,-0.16932 -0.21875,-0.25 -0.0154,-0.016 -0.0158,-0.0465 -0.0312,-0.0625 -0.0678,-0.0692 -0.15069,-0.11862 -0.21875,-0.1875 -0.0266,-0.026 -0.0358,-0.0678 -0.0625,-0.0937 -0.0678,-0.0692 -0.15069,-0.11862 -0.21875,-0.1875 -0.0211,-0.0211 -0.0414,-0.0415 -0.0625,-0.0625 -0.0824,-0.0841 -0.16717,-0.16632 -0.25,-0.25 -0.0106,-0.0105 -0.0206,-0.0208 -0.0312,-0.0312 -0.0824,-0.0841 -0.16717,-0.16632 -0.25,-0.25 -0.005,-0.005 0.005,-0.026 0,-0.0312 -0.0886,-0.0904 -0.19214,-0.16005 -0.28125,-0.25 -0.0853,-0.0832 -0.16425,-0.1672 -0.25,-0.25 -0.0103,-0.0105 -0.0209,-0.0207 -0.0312,-0.0312 -0.0738,-0.0736 -0.14462,-0.14547 -0.21875,-0.21875 -0.0206,-0.021 -0.0419,-0.0415 -0.0625,-0.0625 -0.062,-0.062 -0.12524,-0.12573 -0.1875,-0.1875 -0.0309,-0.0315 -0.0628,-0.0623 -0.0937,-0.0937 -0.048,-0.0468 -0.0768,-0.1096 -0.125,-0.15625 -0.03,-0.0306 -0.0637,-0.0632 -0.0937,-0.0937 -0.005,-0.005 -0.0263,0.005 -0.0312,0 -0.0408,-0.0415 -0.0841,-0.0836 -0.125,-0.125 -0.0515,-0.0526 -0.10458,-0.10385 -0.15625,-0.15625 -0.0257,-0.0258 -0.0368,-0.068 -0.0625,-0.0937 -0.056,-0.0572 -0.13124,-0.0992 -0.1875,-0.15625 -0.0206,-0.0205 -0.0418,-0.042 -0.0625,-0.0625 -0.0618,-0.0631 -0.12546,-0.12466 -0.1875,-0.1875 -0.0104,-0.0102 -0.0209,-0.021 -0.0312,-0.0312 -0.0721,-0.0736 -0.14632,-0.14549 -0.21875,-0.21875 -0.0679,-0.0679 -0.11931,-0.15115 -0.1875,-0.21875 -0.0153,-0.0156 -0.0472,-0.0156 -0.0625,-0.0312 -0.0519,-0.051 -0.10417,-0.10538 -0.15625,-0.15625 -0.0206,-0.021 -0.0419,-0.0415 -0.0625,-0.0625 -0.0469,-0.0457 -0.0779,-0.11065 -0.125,-0.15625 -0.0357,-0.0364 -0.0892,-0.0574 -0.125,-0.0937 -0.0309,-0.0309 -0.0628,-0.0629 -0.0937,-0.0937 -0.009,-0.009 -0.022,-0.0218 -0.0312,-0.0312 -0.005,-0.005 -0.0264,0.005 -0.0312,0 -0.006,-0.006 0.006,-0.0248 0,-0.0312 -0.01,-0.0108 -0.0212,-0.0205 -0.0312,-0.0312 -0.0101,-0.0107 -0.0212,-0.0205 -0.0312,-0.0312 -0.0151,-0.0161 -0.0474,-0.0152 -0.0625,-0.0312 -0.005,-0.006 0.005,-0.0257 0,-0.0312 -0.0515,-0.0526 -0.10458,-0.10385 -0.15625,-0.15625 -0.0104,-0.0104 -0.0208,-0.0208 -0.0312,-0.0312 -0.0618,-0.0631 -0.12546,-0.12466 -0.1875,-0.1875 -0.0207,-0.0201 -0.0418,-0.0424 -0.0625,-0.0625 -0.006,-0.006 0.006,-0.0253 0,-0.0312 -0.0354,-0.0371 -0.0895,-0.0567 -0.125,-0.0937 -0.009,-0.01 -0.0218,-0.0216 -0.0312,-0.0312 -0.0416,-0.0408 -0.0833,-0.0843 -0.125,-0.125 -0.0206,-0.021 -0.0419,-0.0415 -0.0625,-0.0625 -0.006,-0.006 0.006,-0.025 0,-0.0312 -0.0203,-0.0212 -0.0421,-0.0413 -0.0625,-0.0625 -0.0103,-0.0105 -0.021,-0.0207 -0.0312,-0.0312 -0.0199,-0.0203 -0.0425,-0.0422 -0.0625,-0.0625 -0.005,-0.005 -0.0263,0.005 -0.0312,0 -0.0101,-0.0103 -0.0211,-0.0209 -0.0312,-0.0312 -0.005,-0.005 -0.0265,0.005 -0.0312,0 -0.005,-0.006 0.005,-0.0257 0,-0.0312 -0.005,-0.006 0.005,-0.0257 0,-0.0312 -0.0469,-0.0479 -0.10918,-0.0772 -0.15625,-0.125 -0.005,-0.005 0.005,-0.026 0,-0.0312 -0.0505,-0.0516 -0.10554,-0.10482 -0.15625,-0.15625 -0.005,-0.005 -0.0263,0.005 -0.0312,0 -0.0413,-0.0413 -0.0836,-0.0838 -0.125,-0.125 -0.0206,-0.021 -0.0419,-0.0415 -0.0625,-0.0625 -0.0258,-0.0258 -0.0367,-0.068 -0.0625,-0.0937 -0.0357,-0.0364 -0.0892,-0.0574 -0.125,-0.0937 -0.0107,-0.0104 -0.0205,-0.0209 -0.0312,-0.0312 -0.0412,-0.042 -0.0837,-0.0831 -0.125,-0.125 -0.005,-0.005 -0.0259,0.005 -0.0312,0 -0.0351,-0.0379 -0.0586,-0.0872 -0.0937,-0.125 -0.0206,-0.021 -0.0419,-0.0415 -0.0625,-0.0625 -0.0201,-0.0214 -0.0423,-0.0411 -0.0625,-0.0625 -0.0309,-0.0315 -0.0628,-0.0623 -0.0937,-0.0937 -0.0107,-0.0104 -0.0205,-0.0209 -0.0312,-0.0312 -0.036,-0.0368 -0.0576,-0.0883 -0.0937,-0.125 -0.005,-0.005 -0.026,0.005 -0.0312,0 -0.005,-0.005 -0.0263,0.005 -0.0312,0 -0.0102,-0.0108 -0.0211,-0.0204 -0.0312,-0.0312 -0.006,-0.007 0.006,-0.0247 0,-0.0312 -0.0102,-0.0108 -0.021,-0.0205 -0.0312,-0.0312 -0.0309,-0.0315 -0.0628,-0.0623 -0.0937,-0.0937 -0.005,-0.005 -0.0263,0.005 -0.0312,0 -0.0101,-0.0107 -0.0212,-0.0205 -0.0312,-0.0312 -0.0155,-0.0163 -0.0157,-0.0462 -0.0312,-0.0625 -0.0103,-0.0105 -0.0209,-0.0207 -0.0312,-0.0312 -0.0208,-0.0204 -0.0416,-0.0422 -0.0625,-0.0625 -0.0309,-0.0315 -0.0628,-0.0623 -0.0937,-0.0937 -0.005,-0.005 0.005,-0.0258 0,-0.0312 -0.0103,-0.0107 -0.0209,-0.0206 -0.0312,-0.0312 -0.0103,-0.0105 -0.021,-0.0207 -0.0312,-0.0312 -0.005,-0.005 -0.0263,0.005 -0.0312,0 -0.0196,-0.02 -0.0428,-0.0425 -0.0625,-0.0625 -0.0203,-0.0203 -0.0422,-0.0422 -0.0625,-0.0625 -0.0103,-0.0107 -0.0209,-0.0206 -0.0312,-0.0312 -0.009,-0.01 -0.0218,-0.0216 -0.0312,-0.0312 -0.005,-0.006 0.005,-0.0257 0,-0.0312 -0.02,-0.0204 -0.0425,-0.0421 -0.0625,-0.0625 -0.006,-0.006 -0.0251,0.006 -0.0312,0 -0.009,-0.009 -0.022,-0.0219 -0.0312,-0.0312 -0.005,-0.005 0.005,-0.0261 0,-0.0312 -0.0161,-0.0164 -0.0464,-0.0149 -0.0625,-0.0312 -0.0154,-0.0158 -0.0158,-0.0468 -0.0312,-0.0625 -0.005,-0.005 -0.0261,0.005 -0.0312,0 -0.0106,-0.0104 -0.0206,-0.0208 -0.0312,-0.0312 -0.0103,-0.0105 -0.0209,-0.0207 -0.0312,-0.0312 -0.0103,-0.0105 -0.0209,-0.0207 -0.0312,-0.0312 -0.0103,-0.0105 -0.0209,-0.0207 -0.0312,-0.0312 -0.0107,-0.0104 -0.0206,-0.0209 -0.0312,-0.0312 -0.0103,-0.0105 -0.0209,-0.0207 -0.0312,-0.0312 -0.0206,-0.021 -0.0419,-0.0415 -0.0625,-0.0625 -0.0308,-0.0308 -0.0628,-0.063 -0.0937,-0.0937 -0.0725,-0.0716 -0.14593,-0.14744 -0.21875,-0.21875 -0.0305,-0.0305 -0.0632,-0.0634 -0.0937,-0.0937 -0.0938,-0.0915 -0.18688,-0.19025 -0.28125,-0.28125 -0.0214,-0.0207 -0.0411,-0.0418 -0.0625,-0.0625 -0.0203,-0.0203 -0.0422,-0.0422 -0.0625,-0.0625 -0.0314,-0.0304 -0.0623,-0.0634 -0.0937,-0.0937 -0.0204,-0.0204 -0.0421,-0.0421 -0.0625,-0.0625 -0.005,-0.005 -0.026,0.005 -0.0312,0 -0.005,-0.005 0.005,-0.0262 0,-0.0312 -0.0203,-0.0203 -0.0422,-0.0422 -0.0625,-0.0625 -0.0209,-0.0203 -0.0415,-0.0423 -0.0625,-0.0625 -0.0104,-0.0104 -0.0208,-0.0209 -0.0312,-0.0312 -0.0101,-0.0101 -0.0211,-0.0212 -0.0312,-0.0312 -0.009,-0.009 -0.0219,-0.0219 -0.0312,-0.0312 -0.005,-0.005 -0.026,0.005 -0.0312,0 -0.005,-0.005 0.005,-0.0262 0,-0.0312 -0.0103,-0.0103 -0.0209,-0.021 -0.0312,-0.0312 -0.0104,-0.0104 -0.0208,-0.0209 -0.0312,-0.0312 -0.0477,-0.0477 -0.10841,-0.0774 -0.15625,-0.125 -0.10602,-0.10099 -0.20581,-0.21223 -0.3125,-0.3125 -0.0214,-0.0202 -0.041,-0.0423 -0.0625,-0.0625 -0.0106,-0.0103 -0.0206,-0.021 -0.0312,-0.0312 -0.0322,-0.0304 -0.0615,-0.0634 -0.0937,-0.0937 -0.0107,-0.0101 -0.0205,-0.0211 -0.0312,-0.0312 -0.0106,-0.0103 -0.0206,-0.021 -0.0312,-0.0312 -0.0322,-0.0304 -0.0615,-0.0634 -0.0937,-0.0937 -0.0214,-0.0202 -0.041,-0.0423 -0.0625,-0.0625 -0.0214,-0.0202 -0.041,-0.0423 -0.0625,-0.0625 -0.0214,-0.0202 -0.041,-0.0423 -0.0625,-0.0625 -0.0214,-0.0202 -0.041,-0.0423 -0.0625,-0.0625 -0.0214,-0.0202 -0.041,-0.0423 -0.0625,-0.0625 -0.0107,-0.0101 -0.0205,-0.0211 -0.0312,-0.0312 -0.0425,-0.0403 -0.0824,-0.0848 -0.125,-0.125 -0.0107,-0.0101 -0.0205,-0.0211 -0.0312,-0.0312 -0.0107,-0.0102 -0.0205,-0.0211 -0.0312,-0.0312 -0.006,-0.005 -0.0256,0.005 -0.0312,0 -0.20727,-0.19559 -0.41522,-0.40088 -0.625,-0.59375 -0.15268,-0.14023 -0.31474,-0.26746 -0.46875,-0.40625 -0.022,-0.0196 -0.0405,-0.043 -0.0625,-0.0625 -0.011,-0.01 -0.0203,-0.0215 -0.0312,-0.0312 -0.0217,-0.0193 -0.0408,-0.0432 -0.0625,-0.0625 -0.011,-0.01 -0.0203,-0.0215 -0.0312,-0.0312 -0.011,-0.01 -0.0203,-0.0215 -0.0312,-0.0312 -0.011,-0.01 -0.0203,-0.0215 -0.0312,-0.0312 -0.011,-0.01 -0.0203,-0.0215 -0.0312,-0.0312 -0.0111,-0.01 -0.0201,-0.0214 -0.0312,-0.0312 -0.39806,-0.3544 -0.81192,-0.68636 -1.21875,-1.03125 -0.0222,-0.0188 -0.0403,-0.0437 -0.0625,-0.0625 -0.0113,-0.01 -0.0199,-0.0217 -0.0312,-0.0312 -0.0112,-0.009 -0.0201,-0.0219 -0.0312,-0.0312 -0.0111,-0.009 -0.0202,-0.022 -0.0312,-0.0312 -0.006,-0.005 -0.0252,0.005 -0.0312,0 -0.005,-0.004 0.005,-0.0269 0,-0.0312 -0.006,-0.005 -0.0252,0.005 -0.0312,0 -0.20043,-0.16842 -0.3912,-0.33387 -0.59375,-0.5 -0.26624,-0.21819 -0.54261,-0.44202 -0.8125,-0.65625 -0.0116,-0.009 -0.0197,-0.0221 -0.0312,-0.0312 -0.0114,-0.009 -0.0198,-0.0222 -0.0312,-0.0312 -0.46606,-0.36896 -0.96058,-0.73656 -1.4375,-1.09375 -0.0116,-0.009 -0.0197,-0.0226 -0.0312,-0.0312 -0.007,-0.005 -0.0247,0.005 -0.0312,0 -0.005,-0.004 0.005,-0.0275 0,-0.0312 -0.007,-0.005 -0.0247,0.005 -0.0312,0 -0.48262,-0.36021 -0.97504,-0.7143 -1.46875,-1.0625 -0.0118,-0.008 -0.0195,-0.023 -0.0312,-0.0312 -0.0118,-0.008 -0.0195,-0.023 -0.0312,-0.0312 -0.0118,-0.008 -0.0195,-0.023 -0.0312,-0.0312 -0.49412,-0.34706 -0.99481,-0.66494 -1.5,-1 -0.012,-0.008 -0.0192,-0.0233 -0.0312,-0.0312 -0.0121,-0.008 -0.0191,-0.0232 -0.0312,-0.0312 -0.007,-0.005 -0.0238,0.005 -0.0312,0 -0.14398,-0.0951 -0.29262,-0.18707 -0.4375,-0.28125 -0.0317,-0.0205 -0.0621,-0.042 -0.0937,-0.0625 -0.33649,-0.21783 -0.68994,-0.44364 -1.03125,-0.65625 -0.0122,-0.008 -0.019,-0.0237 -0.0312,-0.0312 -0.0122,-0.008 -0.0191,-0.0237 -0.0312,-0.0312 -0.52561,-0.32651 -1.05673,-0.62335 -1.59375,-0.9375 -0.0121,-0.007 -0.0191,-0.0242 -0.0312,-0.0312 -0.008,-0.005 -0.0235,0.005 -0.0312,0 -0.55496,-0.3239 -1.12037,-0.65804 -1.6875,-0.96875 -0.0122,-0.007 -0.019,-0.0246 -0.0312,-0.0312 -0.5625,-0.30775 -1.11303,-0.58021 -1.6875,-0.875 -0.0126,-0.006 -0.0187,-0.0248 -0.0312,-0.0312 -0.008,-0.004 -0.0229,0.004 -0.0312,0 -0.18487,-0.0947 -0.37639,-0.18786 -0.5625,-0.28125 -0.39289,-0.19716 -0.7891,-0.40257 -1.1875,-0.59375 -0.0124,-0.006 -0.0188,-0.0253 -0.0312,-0.0312 -0.58753,-0.28154 -1.18173,-0.54395 -1.78125,-0.8125 -0.009,-0.004 -0.0226,0.004 -0.0312,0 -0.26132,-0.11694 -0.51765,-0.22927 -0.78125,-0.34375 -0.33871,-0.14698 -0.68878,-0.29459 -1.03125,-0.4375 -0.0123,-0.005 -0.0189,-0.0261 -0.0312,-0.0312 -0.61263,-0.25527 -1.25037,-0.50774 -1.875,-0.75 -0.009,-0.003 -0.0223,0.003 -0.0312,0 -0.6287,-0.24358 -1.26539,-0.48834 -1.90625,-0.71875 -0.0126,-0.005 -0.0186,-0.0267 -0.0312,-0.0312 -1.28764,-0.4622 -2.58592,-0.87627 -3.90625,-1.28125 -0.01,-0.003 -0.0217,0.003 -0.0312,0 -1.04863,-0.32125 -2.11826,-0.62108 -3.1875,-0.90625 -0.28376,-0.0757 -0.55854,-0.17686 -0.84375,-0.25 -0.01,-0.002 -0.0215,0.002 -0.0312,0 -1.35693,-0.34749 -2.73522,-0.67876 -4.125,-0.96875 -0.01,-0.002 -0.0213,0.002 -0.0312,0 -1.39005,-0.28959 -2.79585,-0.54916 -4.21875,-0.78125 -0.0101,-0.002 -0.0211,0.002 -0.0312,0 -0.19631,-0.032 -0.39681,-0.0629 -0.59375,-0.0937 -4.05784,-0.63594 -8.23922,-1.04733 -12.5625,-1.21875 -0.0523,-0.002 -0.1039,0.002 -0.15625,0 -0.0103,-3.9e-4 -0.021,3.9e-4 -0.0312,0 -1.53332,-0.0583 -3.0896,-0.0937 -4.65625,-0.0937 -0.90614,2.5e-4 -1.82279,0.0106 -2.71875,0.0312 -0.90626,0.0208 -1.82291,0.0521 -2.71875,0.0937 -0.88534,0.0414 -1.78109,0.0945 -2.65625,0.15625 -0.88542,0.0625 -1.78125,0.13541 -2.65625,0.21875 -0.86458,0.0826 -1.73934,0.1783 -2.59375,0.28125 -0.86459,0.10417 -1.73958,0.21875 -2.59375,0.34375 -0.84388,0.12376 -1.69754,0.26215 -2.53125,0.40625 -0.84375,0.14583 -1.69792,0.30208 -2.53125,0.46875 -0.82324,0.16492 -1.65568,0.34599 -2.46875,0.53125 -0.82292,0.1875 -1.65625,0.38542 -2.46875,0.59375 -0.80266,0.20609 -1.61376,0.42983 -2.40625,0.65625 -0.80208,0.22916 -1.61459,0.46876 -2.40625,0.71875 -0.78214,0.24727 -1.57178,0.51364 -2.34375,0.78125 -0.78125,0.27083 -1.57292,0.55209 -2.34375,0.84375 -0.76168,0.28848 -1.52975,0.59742 -2.28125,0.90625 -0.76041,0.31249 -1.53126,0.63543 -2.28125,0.96875 -0.72442,0.31308 -1.44505,0.64042 -2.15625,0.96875 -0.71979,0.3323 -1.45,0.68332 -2.15625,1.03125 -0.69779,0.34401 -1.40919,0.70323 -2.09375,1.0625 -0.69271,0.36355 -1.38333,0.74583 -2.0625,1.125 -0.67112,0.37495 -1.34211,0.76604 -2,1.15625 -1.33125,0.78959 -2.62917,1.61666 -3.90625,2.46875 -1.908784,1.27356 -3.774726,2.61808 -5.5625,4.03125 -0.0064,0.005 -0.02484,-0.005 -0.03125,0 -0.591421,0.46805 -1.171835,0.95415 -1.75,1.4375 -0.584374,0.48854 -1.179168,0.99584 -1.75,1.5 -0.56491,0.49921 -1.135859,1.01673 -1.6875,1.53125 -0.55183,0.51469 -1.086448,1.06374 -1.625,1.59375 -0.549209,0.5405 -1.0896,1.06857 -1.625,1.625 -0.530206,0.55103 -1.077086,1.0896 -1.59375,1.65625 -0.516669,0.55001 -0.997915,1.12395 -1.5,1.6875 -0.0051,0.006 0.0051,0.0255 0,0.0312 -0.998688,1.12156 -1.996545,2.26233 -2.9375,3.4375 -0.945835,1.18126 -1.862499,2.38958 -2.75,3.625 -0.887501,1.23542 -1.733333,2.49166 -2.5625,3.78125 -0.0046,0.007 0.0046,0.024 0,0.0312 -0.824115,1.28255 -1.639807,2.57015 -2.40625,3.90625 -0.0045,0.008 0.0045,0.0235 0,0.0312 -0.766017,1.33625 -1.510391,2.70396 -2.21875,4.09375 -0.0042,0.008 0.0042,0.0231 0,0.0312 -0.707966,1.39 -1.412183,2.80647 -2.0625,4.25 -0.654165,1.45207 -1.279169,2.93127 -1.875,4.4375 -0.297915,0.75312 -0.591668,1.51459 -0.875,2.28125 -0.283334,0.76667 -0.546874,1.53853 -0.8125,2.3125 -0.265626,0.77397 -0.533333,1.53124 -0.78125,2.3125 -0.499237,1.57171 -0.947449,3.14878 -1.375,4.75 -0.850002,3.18335 -1.558334,6.41875 -2.125,9.71875 -0.141667,0.825 -0.282292,1.63646 -0.40625,2.46875 -0.24986,1.67454 -0.446839,3.35844 -0.625,5.0625 -0.08854,0.84687 -0.179167,1.67709 -0.25,2.53125 -0.142952,1.71847 -0.24124,3.43952 -0.3125,5.1875 -0.07083,1.73749 -0.125001,3.48335 -0.125,5.25 -1e-6,1.81205 0.05173,3.59144 0.125,5.375 8.61e-4,0.021 -8.71e-4,0.0415 0,0.0625 0.03771,0.91254 0.09935,1.81368 0.15625,2.71875 0.0053,0.0835 0.02584,0.16653 0.03125,0.25 0.05254,0.80963 0.08834,1.6026 0.15625,2.40625 0.07565,0.89786 0.155165,1.76585 0.25,2.65625 0.09375,0.88021 0.2,1.75208 0.3125,2.625 0.100143,0.77862 0.228693,1.53968 0.34375,2.3125 0.01548,0.10396 0.0155,0.20865 0.03125,0.3125 0.13125,0.86563 0.25625,1.70417 0.40625,2.5625 0.02532,0.14513 0.03664,0.29258 0.0625,0.4375 0.556013,3.11192 1.259323,6.17171 2.0625,9.1875 0.04463,0.16757 0.07961,0.33273 0.125,0.5 0.227424,0.83901 0.472132,1.66846 0.71875,2.5 0.0065,0.0219 0.02474,0.0406 0.03125,0.0625 0.237656,0.79947 0.463344,1.58244 0.71875,2.375 0.269375,0.83669 0.554597,1.63975 0.84375,2.46875 0.27714,0.79455 0.548441,1.58752 0.84375,2.375 0.0034,0.009 -0.0034,0.0221 0,0.0312 0.05722,0.14941 0.129674,0.28855 0.1875,0.4375 0.247419,0.63686 0.491493,1.2777 0.75,1.90625 0.229736,0.55859 0.480257,1.10422 0.71875,1.65625 0.08509,0.19696 0.163794,0.39763 0.25,0.59375 0.152523,0.34726 0.312734,0.68661 0.46875,1.03125 0.184122,0.40636 0.342269,0.81604 0.53125,1.21875 0.0059,0.0125 0.02539,0.0188 0.03125,0.0312 0.24144,0.51394 0.500642,1.02325 0.75,1.53125 0.106291,0.21654 0.204771,0.44079 0.3125,0.65625 0.01051,0.021 0.02073,0.0415 0.03125,0.0625 0.35671,0.71216 0.721306,1.42464 1.09375,2.125 0.101337,0.19069 0.209997,0.37269 0.3125,0.5625 0.292572,0.54146 0.572938,1.09065 0.875,1.625 0.23226,0.41087 0.480879,0.81209 0.71875,1.21875 0.164887,0.28189 0.332417,0.56389 0.5,0.84375 0.01942,0.0324 0.04305,0.0613 0.0625,0.0937 0.39796,0.6628 0.774393,1.31731 1.1875,1.96875 0.0077,0.0121 0.02359,0.0192 0.03125,0.0312 0.0077,0.0122 0.02353,0.0191 0.03125,0.0312 0.265614,0.41801 0.540642,0.83668 0.8125,1.25 0.156476,0.2379 0.310205,0.4824 0.46875,0.71875 0.01298,0.0194 0.01825,0.0432 0.03125,0.0625 0.43763,0.65136 0.89039,1.29794 1.34375,1.9375 0.255112,0.3601 0.521153,0.70614 0.78125,1.0625 0.225052,0.3082 0.427468,0.6321 0.65625,0.9375 0.0088,0.0118 0.02244,0.0195 0.03125,0.0312 0.0087,0.0116 0.02255,0.0196 0.03125,0.0312 0.0087,0.0116 0.02255,0.0196 0.03125,0.0312 0.215093,0.28656 0.437869,0.55965 0.65625,0.84375 0.08604,0.11206 0.163453,0.23208 0.25,0.34375 0.154313,0.19873 0.312816,0.39623 0.46875,0.59375 0.02335,0.0296 0.03911,0.0642 0.0625,0.0937 0.0091,0.0115 0.02215,0.0197 0.03125,0.0312 0.239323,0.30227 0.475622,0.60684 0.71875,0.90625 0.230757,0.28396 0.453319,0.56236 0.6875,0.84375 0.0094,0.0113 0.02187,0.02 0.03125,0.0312 0.0094,0.0114 0.0218,0.0199 0.03125,0.0312 0.0094,0.0113 0.02187,0.02 0.03125,0.0312 0.0094,0.0113 0.02187,0.02 0.03125,0.0312 0.0094,0.0114 0.0218,0.0199 0.03125,0.0312 0.174401,0.20857 0.354961,0.41784 0.53125,0.625 0.0095,0.0111 0.02178,0.0201 0.03125,0.0312 0.0095,0.0111 0.02177,0.0201 0.03125,0.0312 0.006,0.007 -0.006,0.0242 0,0.0312 0.01891,0.0223 0.04357,0.0403 0.0625,0.0625 0.03359,0.0393 0.06009,0.0858 0.09375,0.125 0.08093,0.0948 0.168677,0.18673 0.25,0.28125 0.02878,0.0335 0.06492,0.0603 0.09375,0.0937 0.01916,0.0221 0.04332,0.0404 0.0625,0.0625 0.01505,0.0173 0.01618,0.0452 0.03125,0.0625 0.08194,0.0942 0.167658,0.18733 0.25,0.28125 0.01505,0.0172 0.01619,0.0453 0.03125,0.0625 0.03906,0.0446 0.08585,0.0805 0.125,0.125 0.03799,0.0434 0.08692,0.0817 0.125,0.125 0.443604,0.50148 0.888739,1.00707 1.34375,1.5 0.05527,0.0599 0.100807,0.12772 0.15625,0.1875 0.03913,0.0424 0.08578,0.0826 0.125,0.125 0.0199,0.0216 0.04257,0.0409 0.0625,0.0625 0.01991,0.0216 0.04257,0.0409 0.0625,0.0625 0.06984,0.0758 0.14864,0.14315 0.21875,0.21875 0.01,0.0108 0.02125,0.0204 0.03125,0.0312 0.01534,0.0163 0.0159,0.0462 0.03125,0.0625 0.0098,0.0104 0.02148,0.0209 0.03125,0.0312 0.07004,0.0743 0.148448,0.14467 0.21875,0.21875 0.01016,0.0107 0.02109,0.0206 0.03125,0.0312 0.09706,0.10212 0.183685,0.21076 0.28125,0.3125 0.138091,0.14394 0.267155,0.29432 0.40625,0.4375 0.0051,0.005 0.0261,-0.005 0.03125,0 0.01536,0.0154 0.01588,0.0472 0.03125,0.0625 0.01039,0.0104 0.02085,0.0209 0.03125,0.0312 0.01049,0.0105 0.02075,0.0208 0.03125,0.0312 0.01557,0.0155 0.04691,0.0158 0.0625,0.0312 0.01007,0.0105 0.02117,0.0207 0.03125,0.0312 0.01041,0.0104 0.02083,0.0209 0.03125,0.0312 0.01034,0.0103 0.02091,0.021 0.03125,0.0312 0.0093,0.01 0.02198,0.0217 0.03125,0.0312 0.02058,0.0212 0.0419,0.0413 0.0625,0.0625 0.02058,0.0212 0.0419,0.0413 0.0625,0.0625 0.02058,0.0212 0.0419,0.0413 0.0625,0.0625 0.01035,0.0102 0.02089,0.021 0.03125,0.0312 0.0052,0.005 -0.0052,0.0261 0,0.0312 0.01,0.0103 0.02127,0.021 0.03125,0.0312 0.0095,0.01 0.02175,0.0215 0.03125,0.0312 0.0053,0.005 0.02595,-0.005 0.03125,0 0.01048,0.0103 0.02076,0.021 0.03125,0.0312 0.02101,0.021 0.04147,0.0416 0.0625,0.0625 0.006,0.006 -0.006,0.0251 0,0.0312 0.0206,0.0206 0.04188,0.0419 0.0625,0.0625 0.01027,0.0106 0.02097,0.0207 0.03125,0.0312 0.02098,0.021 0.0415,0.0415 0.0625,0.0625 0.01028,0.0106 0.02097,0.0207 0.03125,0.0312 0.02098,0.021 0.0415,0.0415 0.0625,0.0625 0.01028,0.0106 0.02096,0.0207 0.03125,0.0312 0.0053,0.005 0.02593,-0.005 0.03125,0 0.03093,0.0309 0.06277,0.0629 0.09375,0.0937 0.03119,0.0312 0.06251,0.0626 0.09375,0.0937 0.03119,0.0312 0.06251,0.0626 0.09375,0.0937 0.01019,0.0105 0.02105,0.0208 0.03125,0.0312 0.02109,0.0209 0.04139,0.0416 0.0625,0.0625 0.0052,0.005 -0.0052,0.0261 0,0.0312 0.0096,0.01 0.02168,0.0214 0.03125,0.0312 0.03033,0.0303 0.06337,0.0635 0.09375,0.0937 0.0053,0.005 0.02594,-0.005 0.03125,0 0.0052,0.005 -0.0052,0.0261 0,0.0312 0.03147,0.0315 0.06223,0.0623 0.09375,0.0937 0.0102,0.0105 0.02105,0.0207 0.03125,0.0312 0.03147,0.0315 0.06223,0.0623 0.09375,0.0937 0.01027,0.0106 0.02097,0.0207 0.03125,0.0312 0.02603,0.0269 0.06769,0.0356 0.09375,0.0625 0.0056,0.005 0.02566,-0.005 0.03125,0 0.01518,0.0156 0.01606,0.0469 0.03125,0.0625 0.01606,0.0152 0.04643,0.016 0.0625,0.0312 0.0053,0.005 -0.0053,0.026 0,0.0312 0.0052,0.005 -0.0052,0.0261 0,0.0312 0.0095,0.009 0.02172,0.0218 0.03125,0.0312 0.0102,0.0105 0.02104,0.0207 0.03125,0.0312 0.03056,0.0306 0.06314,0.0632 0.09375,0.0937 0.0054,0.005 0.02584,-0.005 0.03125,0 0.01022,0.0102 0.02102,0.0211 0.03125,0.0312 0.0055,0.005 0.02576,-0.005 0.03125,0 0.0051,0.005 -0.0051,0.026 0,0.0312 0.0052,0.005 -0.0052,0.0262 0,0.0312 0.03598,0.0372 0.08895,0.0566 0.125,0.0937 0.05305,0.0519 0.103063,0.10449 0.15625,0.15625 0.01626,0.0154 0.04623,0.0158 0.0625,0.0312 0.02607,0.0254 0.0364,0.0683 0.0625,0.0937 0.0055,0.005 0.02576,-0.005 0.03125,0 0.0051,0.005 -0.0052,0.026 0,0.0312 0.01059,0.0104 0.02065,0.0209 0.03125,0.0312 0.04643,0.048 0.07845,0.10833 0.125,0.15625 0.05674,0.0567 0.130602,0.0996 0.1875,0.15625 0.02702,0.0257 0.0667,0.0369 0.09375,0.0625 0.02602,0.026 0.03644,0.0678 0.0625,0.0937 0.01018,0.0105 0.02106,0.0208 0.03125,0.0312 0.0258,0.0255 0.03666,0.0683 0.0625,0.0937 0.03069,0.0317 0.06302,0.0621 0.09375,0.0937 0.04156,0.0416 0.08336,0.0835 0.125,0.125 0.02054,0.0212 0.04194,0.0413 0.0625,0.0625 0.0473,0.0473 0.108838,0.0778 0.15625,0.125 0.0051,0.005 -0.0051,0.0262 0,0.0312 0.0094,0.01 0.02183,0.0216 0.03125,0.0312 0.06704,0.067 0.151491,0.12066 0.21875,0.1875 0.03738,0.0356 0.08756,0.0582 0.125,0.0937 0.0052,0.005 -0.0052,0.0261 0,0.0312 0.01058,0.0104 0.02067,0.0208 0.03125,0.0312 0.01601,0.0165 0.01523,0.046 0.03125,0.0625 0.06828,0.0683 0.15024,0.11943 0.21875,0.1875 0.0054,0.005 0.02586,-0.005 0.03125,0 0.0048,0.005 -0.0048,0.0266 0,0.0312 0.0056,0.005 0.02566,-0.005 0.03125,0 0.01056,0.0102 0.02068,0.021 0.03125,0.0312 0.0106,0.0102 0.02064,0.0211 0.03125,0.0312 0.0053,0.005 -0.0053,0.0262 0,0.0312 0.02652,0.0252 0.06719,0.0373 0.09375,0.0625 0.0052,0.005 -0.0052,0.0261 0,0.0312 0.01044,0.0102 0.02081,0.0211 0.03125,0.0312 0.03738,0.0356 0.08756,0.0582 0.125,0.0937 0.01563,0.0156 0.01561,0.0469 0.03125,0.0625 0.01017,0.0105 0.02107,0.0208 0.03125,0.0312 0.02062,0.0206 0.04186,0.0419 0.0625,0.0625 0.01032,0.0101 0.02092,0.0212 0.03125,0.0312 0.0054,0.005 0.02586,-0.005 0.03125,0 0.005,0.005 -0.005,0.0264 0,0.0312 0.0056,0.005 0.02563,-0.005 0.03125,0 0.02103,0.0205 0.04145,0.042 0.0625,0.0625 0.0052,0.005 -0.0052,0.0263 0,0.0312 0.05198,0.052 0.104135,0.10439 0.15625,0.15625 0.02058,0.0212 0.0419,0.0413 0.0625,0.0625 0.07703,0.0798 0.141415,0.17039 0.21875,0.25 0.07877,0.0788 0.170925,0.14026 0.25,0.21875 0.02079,0.0208 0.04169,0.0417 0.0625,0.0625 0.02702,0.0257 0.0667,0.0369 0.09375,0.0625 0.03564,0.0368 0.05804,0.0882 0.09375,0.125 0.02634,0.0259 0.03613,0.0679 0.0625,0.0937 0.05122,0.053 0.104895,0.10338 0.15625,0.15625 0.0618,0.0618 0.125517,0.12588 0.1875,0.1875 0.02054,0.0212 0.04194,0.0413 0.0625,0.0625 0.08764,0.0876 0.193236,0.16271 0.28125,0.25 0.0054,0.005 0.02586,-0.005 0.03125,0 0.07424,0.0709 0.144252,0.14812 0.21875,0.21875 0.0052,0.005 -0.0052,0.0261 0,0.0312 0.03128,0.0305 0.06243,0.0632 0.09375,0.0937 0.03776,0.0359 0.08717,0.0579 0.125,0.0937 0.0052,0.005 -0.0052,0.0261 0,0.0312 0.02037,0.021 0.04211,0.0415 0.0625,0.0625 0.0051,0.005 -0.0051,0.0263 0,0.0312 0.08186,0.0849 0.167787,0.16537 0.25,0.25 0.08926,0.0893 0.191599,0.1611 0.28125,0.25 0.02079,0.0208 0.04169,0.0417 0.0625,0.0625 0.02652,0.0252 0.06719,0.0373 0.09375,0.0625 0.04624,0.0478 0.07865,0.10854 0.125,0.15625 0.02636,0.0259 0.03611,0.0679 0.0625,0.0937 0.0717,0.0743 0.146783,0.14467 0.21875,0.21875 0.05245,0.0525 0.103665,0.10392 0.15625,0.15625 0.04108,0.0424 0.08383,0.0826 0.125,0.125 0.09794,0.0979 0.214094,0.18375 0.3125,0.28125 0.0953,0.0936 0.185513,0.18808 0.28125,0.28125 0.0101,0.0104 0.02114,0.0208 0.03125,0.0312 0.0208,0.0204 0.04168,0.0421 0.0625,0.0625 0.07707,0.0799 0.141369,0.17034 0.21875,0.25 0.06768,0.0677 0.150852,0.12003 0.21875,0.1875 0.03617,0.0374 0.05751,0.0877 0.09375,0.125 0.05784,0.0578 0.129497,0.0986 0.1875,0.15625 0.0055,0.005 0.02576,-0.005 0.03125,0 0.0052,0.005 -0.0052,0.026 0,0.0312 0.03613,0.0373 0.05755,0.0877 0.09375,0.125 0.06704,0.067 0.15149,0.12066 0.21875,0.1875 0.04111,0.0425 0.0838,0.0826 0.125,0.125 0.0106,0.0104 0.02065,0.0209 0.03125,0.0312 0.03631,0.0359 0.05738,0.0892 0.09375,0.125 0.06151,0.0637 0.125795,0.12398 0.1875,0.1875 0.09975,0.0997 0.212262,0.18195 0.3125,0.28125 0.01029,0.0106 0.02095,0.0206 0.03125,0.0312 0.04736,0.0469 0.07753,0.10948 0.125,0.15625 0.06151,0.0637 0.125795,0.12398 0.1875,0.1875 0.0824,0.0824 0.167273,0.16791 0.25,0.25 0.03081,0.0318 0.06289,0.062 0.09375,0.0937 0.07273,0.0727 0.14577,0.14626 0.21875,0.21875 0.041,0.0424 0.0839,0.0827 0.125,0.125 0.11854,0.11854 0.25578,0.22585 0.375,0.34375 0.0728,0.0728 0.14572,0.14621 0.21875,0.21875 0.0374,0.0356 0.0876,0.0582 0.125,0.0937 0.005,0.005 -0.005,0.026 0,0.0312 0.0988,0.0988 0.21321,0.18288 0.3125,0.28125 0.0106,0.01 0.0207,0.0212 0.0312,0.0312 0.006,0.006 -0.006,0.0252 0,0.0312 0.01,0.0102 0.0214,0.0211 0.0312,0.0312 0.0104,0.0104 0.0208,0.0209 0.0312,0.0312 0.10762,0.11187 0.20427,0.23234 0.3125,0.34375 0.0893,0.0893 0.1916,0.1611 0.28125,0.25 0.0362,0.0374 0.0575,0.0877 0.0937,0.125 0.0579,0.0579 0.12947,0.0985 0.1875,0.15625 0.0267,0.0254 0.067,0.0371 0.0937,0.0625 0.005,0.005 -0.005,0.026 0,0.0312 0.0106,0.0104 0.0206,0.0209 0.0312,0.0312 0.026,0.0269 0.0364,0.0669 0.0625,0.0937 0.0683,0.0683 0.15018,0.11937 0.21875,0.1875 0.005,0.005 0.0259,-0.005 0.0312,0 0.0263,0.0261 0.0362,0.0677 0.0625,0.0937 0.005,0.005 -0.005,0.0262 0,0.0312 0.02,0.0206 0.0425,0.0419 0.0625,0.0625 0.15079,0.15079 0.31685,0.28774 0.46875,0.4375 0.1076,0.11185 0.20429,0.23236 0.3125,0.34375 0.13122,0.13123 0.27419,0.24456 0.40625,0.375 0.0485,0.0462 0.10764,0.0789 0.15625,0.125 0.0677,0.0674 0.11955,0.15152 0.1875,0.21875 0.0204,0.021 0.0421,0.0415 0.0625,0.0625 0.016,0.0156 0.0464,0.0156 0.0625,0.0312 0.0212,0.0204 0.0413,0.0421 0.0625,0.0625 0.0678,0.0675 0.11951,0.15142 0.1875,0.21875 0.0306,0.0315 0.0631,0.0623 0.0937,0.0937 0.0374,0.0356 0.0876,0.0582 0.125,0.0937 0.0573,0.0571 0.0988,0.13056 0.15625,0.1875 0.0411,0.0425 0.0838,0.0826 0.125,0.125 0.027,0.0257 0.0667,0.0369 0.0937,0.0625 0.0677,0.0675 0.11961,0.15146 0.1875,0.21875 0.0411,0.0425 0.0838,0.0826 0.125,0.125 0.0267,0.0254 0.067,0.0371 0.0937,0.0625 0.0885,0.0883 0.16114,0.19334 0.25,0.28125 0.0306,0.0315 0.0631,0.0623 0.0937,0.0937 0.0161,0.0152 0.0464,0.016 0.0625,0.0312 0.026,0.026 0.0365,0.0678 0.0625,0.0937 0.0974,0.10119 0.18332,0.21169 0.28125,0.3125 0.14171,0.14172 0.29481,0.26545 0.4375,0.40625 0.005,0.005 0.0259,-0.005 0.0312,0 0.0988,0.0987 0.18198,0.2142 0.28125,0.3125 0.0373,0.0364 0.0877,0.0574 0.125,0.0937 0.005,0.005 -0.005,0.026 0,0.0312 0.0936,0.0936 0.18725,0.18808 0.28125,0.28125 0.048,0.0457 0.10813,0.0794 0.15625,0.125 0.005,0.005 -0.005,0.026 0,0.0312 0.0104,0.0104 0.0208,0.0209 0.0312,0.0312 0.13809,0.14394 0.26716,0.29432 0.40625,0.4375 0.1522,0.15221 0.31542,0.28635 0.46875,0.4375 0.0104,0.0104 0.0208,0.0209 0.0312,0.0312 0.0423,0.0417 0.0826,0.0834 0.125,0.125 0.0974,0.10119 0.18331,0.21168 0.28125,0.3125 0.1522,0.15221 0.31542,0.28635 0.46875,0.4375 0.11269,0.10796 0.23047,0.20509 0.34375,0.3125 0.005,0.005 -0.005,0.0261 0,0.0312 0.0158,0.0154 0.0154,0.0471 0.0312,0.0625 0.0257,0.0265 0.068,0.036 0.0937,0.0625 0.11164,0.10694 0.23153,0.2061 0.34375,0.3125 0.005,0.005 -0.005,0.0261 0,0.0312 0.0411,0.0425 0.0838,0.0826 0.125,0.125 0.10202,0.0976 0.21,0.18406 0.3125,0.28125 0.005,0.005 -0.005,0.0261 0,0.0312 0.0514,0.0531 0.10475,0.10324 0.15625,0.15625 0.0208,0.0208 0.0417,0.0417 0.0625,0.0625 0.13809,0.14394 0.26716,0.29432 0.40625,0.4375 0.19235,0.19235 0.3996,0.37183 0.59375,0.5625 0.0587,0.0559 0.12869,0.10049 0.1875,0.15625 0.047,0.0466 0.0779,0.10975 0.125,0.15625 0.0306,0.0315 0.0631,0.0623 0.0937,0.0937 0.0104,0.0104 0.0208,0.0209 0.0312,0.0312 0.14823,0.15465 0.28812,0.31497 0.4375,0.46875 0.10824,0.10824 0.23494,0.20479 0.34375,0.3125 0.0566,0.0586 0.0995,0.12905 0.15625,0.1875 0.17004,0.17004 0.35981,0.33128 0.53125,0.5 0.0693,0.0661 0.14926,0.12161 0.21875,0.1875 0.0469,0.0466 0.078,0.10971 0.125,0.15625 0.0514,0.0531 0.10475,0.10324 0.15625,0.15625 0.0312,0.0312 0.0625,0.0626 0.0937,0.0937 0.13809,0.14394 0.26716,0.29432 0.40625,0.4375 0.17157,0.17157 0.35825,0.32976 0.53125,0.5 0.0587,0.0559 0.12869,0.10049 0.1875,0.15625 0.0729,0.0725 0.14563,0.14652 0.21875,0.21875 0.0157,0.0152 0.0156,0.0473 0.0312,0.0625 0.0306,0.0315 0.0631,0.0623 0.0937,0.0937 0.048,0.0457 0.10813,0.0794 0.15625,0.125 0.0835,0.0831 0.16619,0.16721 0.25,0.25 0.0211,0.0205 0.0414,0.042 0.0625,0.0625 0.026,0.0269 0.0364,0.0669 0.0625,0.0937 0.11436,0.11436 0.22875,0.22998 0.34375,0.34375 0.0616,0.0638 0.1257,0.12388 0.1875,0.1875 0.0312,0.0312 0.0625,0.0626 0.0937,0.0937 0.14823,0.15465 0.28812,0.31497 0.4375,0.46875 0.18368,0.18368 0.37718,0.34911 0.5625,0.53125 0.0267,0.0254 0.067,0.0371 0.0937,0.0625 0.0156,0.0156 0.0156,0.0469 0.0312,0.0625 0.0212,0.0208 0.0413,0.0417 0.0625,0.0625 0.11779,0.12255 0.22523,0.253 0.34375,0.375 0.18368,0.18368 0.37718,0.34911 0.5625,0.53125 0.0163,0.0154 0.0462,0.0158 0.0625,0.0312 0.1247,0.12451 0.24955,0.25119 0.375,0.375 0.0372,0.0361 0.0565,0.089 0.0937,0.125 0.0102,0.0105 0.0211,0.0208 0.0312,0.0312 0.0161,0.0152 0.0464,0.016 0.0625,0.0312 0.10925,0.10909 0.20267,0.2352 0.3125,0.34375 0.0616,0.0638 0.1257,0.12388 0.1875,0.1875 0.005,0.005 0.0258,-0.005 0.0312,0 0.0364,0.0364 0.0573,0.0887 0.0937,0.125 0.14823,0.15465 0.28812,0.31497 0.4375,0.46875 0.19417,0.19417 0.39775,0.37005 0.59375,0.5625 0.1404,0.1404 0.29614,0.26674 0.4375,0.40625 0.032,0.031 0.0617,0.0628 0.0937,0.0937 0.0107,0.0101 0.0206,0.0211 0.0312,0.0312 0.006,0.007 -0.006,0.0247 0,0.0312 0.13516,0.13516 0.27021,0.27192 0.40625,0.40625 0.0485,0.0462 0.10764,0.0789 0.15625,0.125 0.0154,0.0159 0.0158,0.0466 0.0312,0.0625 0.14555,0.14555 0.29092,0.29291 0.4375,0.4375 0.0374,0.0356 0.0876,0.0582 0.125,0.0937 0.0153,0.0158 0.016,0.0467 0.0312,0.0625 0.14555,0.14555 0.29092,0.29291 0.4375,0.4375 0.0267,0.0254 0.067,0.0371 0.0937,0.0625 0.0255,0.0263 0.037,0.0675 0.0625,0.0937 0.13516,0.13516 0.2702,0.27192 0.40625,0.40625 0.0374,0.0356 0.0876,0.0582 0.125,0.0937 0.0257,0.0265 0.0367,0.0672 0.0625,0.0937 0.052,0.052 0.10414,0.10439 0.15625,0.15625 0.14823,0.15465 0.28812,0.31497 0.4375,0.46875 0.20466,0.20466 0.41831,0.391 0.625,0.59375 0.052,0.052 0.10414,0.10439 0.15625,0.15625 0.0106,0.0104 0.0206,0.0209 0.0312,0.0312 0.13809,0.14394 0.26716,0.29432 0.40625,0.4375 0.11962,0.11962 0.25468,0.22478 0.375,0.34375 0.0872,0.0905 0.16235,0.19103 0.25,0.28125 0.13637,0.13637 0.26897,0.27072 0.40625,0.40625 0.0718,0.0743 0.14672,0.14461 0.21875,0.21875 0.13637,0.13637 0.26897,0.27072 0.40625,0.40625 0.0718,0.0743 0.14672,0.14461 0.21875,0.21875 0.28323,0.28324 0.55661,0.56416 0.84375,0.84375 0.0678,0.0674 0.15073,0.12034 0.21875,0.1875 0.005,0.005 0.0258,-0.005 0.0312,0 0.0667,0.0691 0.12055,0.14983 0.1875,0.21875 0.14464,0.13898 0.29188,0.26818 0.4375,0.40625 0.0262,0.0258 0.0363,0.0679 0.0625,0.0937 0.0509,0.0526 0.10524,0.10374 0.15625,0.15625 0.052,0.052 0.10414,0.10439 0.15625,0.15625 0.15835,0.16536 0.30908,0.33563 0.46875,0.5 0.14419,0.1442 0.29229,0.29425 0.4375,0.4375 0.0718,0.0743 0.14672,0.14461 0.21875,0.21875 0.13507,0.13507 0.2703,0.27201 0.40625,0.40625 0.0819,0.085 0.16772,0.1653 0.25,0.25 0.22153,0.22154 0.46358,0.43694 0.6875,0.65625 0.0884,0.0884 0.19245,0.16194 0.28125,0.25 0.047,0.0456 0.0779,0.11074 0.125,0.15625 0.0872,0.0905 0.16239,0.19107 0.25,0.28125 0.28343,0.28343 0.58766,0.53272 0.875,0.8125 0.005,0.005 -0.005,0.0261 0,0.0312 0.15835,0.16536 0.30908,0.33563 0.46875,0.5 0.14944,0.14944 0.31823,0.28908 0.46875,0.4375 0.0771,0.0799 0.14139,0.17037 0.21875,0.25 0.1522,0.15221 0.31542,0.28635 0.46875,0.4375 0.0771,0.0799 0.14139,0.17037 0.21875,0.25 0.21313,0.21313 0.44091,0.41393 0.65625,0.625 0.0204,0.021 0.0421,0.0415 0.0625,0.0625 0.10202,0.0976 0.21,0.18406 0.3125,0.28125 0.0522,0.0517 0.10393,0.10467 0.15625,0.15625 0.077,0.0799 0.14141,0.17038 0.21875,0.25 0.0728,0.0728 0.14572,0.14621 0.21875,0.21875 0.15835,0.16536 0.30908,0.33563 0.46875,0.5 0.17004,0.17004 0.35981,0.33128 0.53125,0.5 0.0669,0.0692 0.12041,0.14969 0.1875,0.21875 0.28323,0.28324 0.55661,0.56416 0.84375,0.84375 0.10941,0.10893 0.23376,0.20411 0.34375,0.3125 0.082,0.0851 0.1676,0.16518 0.25,0.25 0.0832,0.0832 0.16649,0.16714 0.25,0.25 0.15835,0.16536 0.30908,0.33563 0.46875,0.5 0.28343,0.28343 0.58766,0.53272 0.875,0.8125 0.0427,0.0406 0.0823,0.0845 0.125,0.125 0.0784,0.0778 0.1401,0.1725 0.21875,0.25 0.082,0.0851 0.1676,0.16518 0.25,0.25 0.0806,0.077 0.16905,0.142 0.25,0.21875 0.10958,0.10878 0.20234,0.23551 0.3125,0.34375 0.061,0.0632 0.12628,0.12448 0.1875,0.1875 0.0799,0.0763 0.16983,0.14273 0.25,0.21875 0.005,0.005 -0.005,0.0261 0,0.0312 0.15835,0.16536 0.30908,0.33563 0.46875,0.5 0.16479,0.16479 0.33389,0.33644 0.5,0.5 0.082,0.085 0.16768,0.16526 0.25,0.25 0.22352,0.22352 0.46155,0.435 0.6875,0.65625 0.0306,0.0315 0.0632,0.0623 0.0937,0.0937 0.0687,0.0655 0.14986,0.12218 0.21875,0.1875 0.0991,0.0985 0.18168,0.21448 0.28125,0.3125 0.082,0.0851 0.1676,0.16518 0.25,0.25 0.12476,0.12476 0.24948,0.25095 0.375,0.375 0.12793,0.13322 0.24621,0.27367 0.375,0.40625 0.25711,0.25711 0.52093,0.49589 0.78125,0.75 0.0587,0.0559 0.12869,0.10049 0.1875,0.15625 0.13547,0.13474 0.26989,0.27234 0.40625,0.40625 0.0214,0.0206 0.041,0.042 0.0625,0.0625 0.046,0.0476 0.0789,0.10877 0.125,0.15625 0.0485,0.0462 0.10764,0.0789 0.15625,0.125 0.0469,0.0467 0.078,0.10966 0.125,0.15625 0.15835,0.16536 0.30908,0.33563 0.46875,0.5 0.26273,0.26273 0.54641,0.52165 0.8125,0.78125 0.048,0.0457 0.10813,0.0794 0.15625,0.125 0.12496,0.12442 0.24928,0.25129 0.375,0.375 0.0316,0.0303 0.0622,0.0635 0.0937,0.0937 0.0566,0.0586 0.0994,0.12901 0.15625,0.1875 0.0476,0.0453 0.10853,0.0797 0.15625,0.125 0.0886,0.0882 0.16105,0.19342 0.25,0.28125 0.12792,0.13322 0.24621,0.27368 0.375,0.40625 0.28323,0.28324 0.55661,0.56416 0.84375,0.84375 0.078,0.0779 0.17167,0.14111 0.25,0.21875 0.16846,0.17609 0.33004,0.35629 0.5,0.53125 0.18034,0.18034 0.38058,0.35239 0.5625,0.53125 0.0873,0.0905 0.16235,0.19103 0.25,0.28125 0.18368,0.18368 0.37718,0.34911 0.5625,0.53125 0.0873,0.0905 0.16235,0.19103 0.25,0.28125 0.23391,0.23391 0.48218,0.45607 0.71875,0.6875 0.0407,0.0421 0.0842,0.083 0.125,0.125 0.0163,0.0154 0.0462,0.0158 0.0625,0.0312 0.16127,0.16103 0.30622,0.34014 0.46875,0.5 0.0923,0.0958 0.18855,0.18583 0.28125,0.28125 0.1508,0.1508 0.31684,0.28773 0.46875,0.4375 0.0159,0.0152 0.0154,0.0473 0.0312,0.0625 0.10749,0.11173 0.2044,0.23247 0.3125,0.34375 0.27303,0.27303 0.56709,0.54285 0.84375,0.8125 0.0161,0.0152 0.0464,0.016 0.0625,0.0312 0.20802,0.20772 0.41487,0.41924 0.625,0.625 0.0105,0.0101 0.0207,0.0212 0.0312,0.0312 0.0464,0.048 0.0785,0.10833 0.125,0.15625 0.016,0.0152 0.0465,0.0161 0.0625,0.0312 0.208,0.20769 0.4149,0.41927 0.625,0.625 0.0106,0.0102 0.0206,0.0211 0.0312,0.0312 0.0464,0.048 0.0785,0.10833 0.125,0.15625 0.005,0.005 0.0259,-0.005 0.0312,0 0.18199,0.1819 0.34765,0.3821 0.53125,0.5625 0.0923,0.0958 0.18855,0.18583 0.28125,0.28125 0.005,0.005 0.0259,-0.005 0.0312,0 0.16119,0.16111 0.3063,0.34007 0.46875,0.5 0.11776,0.12252 0.22526,0.25302 0.34375,0.375 0.28858,0.28858 0.58237,0.55895 0.875,0.84375 0.11436,0.11436 0.22875,0.22998 0.34375,0.34375 0.16846,0.17609 0.33004,0.35629 0.5,0.53125 0.19064,0.19064 0.40135,0.37351 0.59375,0.5625 0.0974,0.10119 0.18331,0.21168 0.28125,0.3125 0.19417,0.19417 0.39775,0.37005 0.59375,0.5625 0.0974,0.10119 0.18331,0.21168 0.28125,0.3125 0.19417,0.19417 0.39775,0.37005 0.59375,0.5625 0.0974,0.10119 0.18331,0.21168 0.28125,0.3125 0.19417,0.19417 0.39775,0.37005 0.59375,0.5625 0.0974,0.10119 0.18331,0.21168 0.28125,0.3125 0.28858,0.28858 0.61362,0.55895 0.90625,0.84375 0.005,0.005 -0.005,0.0258 0,0.0312 0.12476,0.12476 0.24948,0.25095 0.375,0.375 0.16846,0.17609 0.33004,0.35629 0.5,0.53125 0.20094,0.20094 0.4221,0.39465 0.625,0.59375 0.0974,0.10119 0.18331,0.21168 0.28125,0.3125 0.20466,0.20466 0.41831,0.391 0.625,0.59375 0.0974,0.10119 0.18331,0.21168 0.28125,0.3125 0.20466,0.20466 0.41831,0.391 0.625,0.59375 0.0974,0.10119 0.18331,0.21168 0.28125,0.3125 0.20466,0.20466 0.41831,0.391 0.625,0.59375 0.0974,0.10119 0.18331,0.21168 0.28125,0.3125 0.23391,0.23391 0.48218,0.45607 0.71875,0.6875 0.027,0.0257 0.0667,0.0369 0.0937,0.0625 0.0462,0.0478 0.0787,0.10854 0.125,0.15625 0.13001,0.13001 0.27542,0.24576 0.40625,0.375 0.1737,0.18165 0.3247,0.38205 0.5,0.5625 0.29907,0.29907 0.60283,0.57999 0.90625,0.875 0.0103,0.0106 0.0209,0.0206 0.0312,0.0312 0.20793,0.20793 0.41496,0.41903 0.625,0.625 0.0485,0.0462 0.10764,0.0789 0.15625,0.125 0.0565,0.0584 0.0996,0.12919 0.15625,0.1875 0.20793,0.20793 0.41496,0.41903 0.625,0.625 0.048,0.0457 0.10813,0.0794 0.15625,0.125 0.0565,0.0584 0.0996,0.12919 0.15625,0.1875 0.20793,0.20793 0.41496,0.41903 0.625,0.625 0.048,0.0457 0.10813,0.0794 0.15625,0.125 0.0565,0.0584 0.0996,0.12919 0.15625,0.1875 0.13516,0.13516 0.27021,0.27192 0.40625,0.40625 0.17857,0.18682 0.351,0.37695 0.53125,0.5625 0.29907,0.29907 0.60283,0.58 0.90625,0.875 0.0206,0.021 0.0419,0.041 0.0625,0.062 0.13516,0.1352 0.2702,0.2719 0.40625,0.4062 0.17857,0.1869 0.351,0.377 0.53125,0.5625 0.21123,0.2113 0.44284,0.4158 0.65625,0.625 0.10762,0.1119 0.20427,0.2324 0.3125,0.3438 0.21515,0.2151 0.43885,0.412 0.65625,0.625 0.10762,0.1119 0.20427,0.2323 0.3125,0.3437 0.21515,0.2152 0.43885,0.412 0.65625,0.625 0.10762,0.1119 0.20427,0.2324 0.3125,0.3438 0.27042,0.2704 0.56978,0.5141 0.84375,0.7812 0.0561,0.058 0.1,0.1296 0.15625,0.1875 0.21318,0.2132 0.44086,0.4139 0.65625,0.625 0.10763,0.1119 0.20426,0.2324 0.3125,0.3438 0.2482,0.2408 0.49889,0.4807 0.75,0.7187 0.005,0 -0.005,0.026 0,0.031 0.0813,0.084 0.16838,0.166 0.25,0.25 0.14555,0.1456 0.29092,0.293 0.4375,0.4375 0.17857,0.1869 0.351,0.377 0.53125,0.5625 0.22153,0.2216 0.46358,0.437 0.6875,0.6563 0.10762,0.1119 0.20427,0.2323 0.3125,0.3437 0.19235,0.1924 0.3996,0.3719 0.59375,0.5625 0.13809,0.144 0.26716,0.2944 0.40625,0.4375 0.31947,0.3195 0.67556,0.6227 1,0.9375 0.0155,0.016 0.0157,0.047 0.0312,0.062 0.21833,0.2184 0.4356,0.4401 0.65625,0.6563 0.016,0.015 0.0465,0.016 0.0625,0.031 0.0974,0.1011 0.1834,0.2118 0.28125,0.3125 0.23776,0.2304 0.47833,0.4595 0.71875,0.6875 0.021,0.021 0.0414,0.042 0.0625,0.062 0.0865,0.09 0.16314,0.1918 0.25,0.2813 0.15595,0.1559 0.31162,0.3138 0.46875,0.4687 0.17857,0.1868 0.351,0.3769 0.53125,0.5625 0.19235,0.1923 0.3996,0.3718 0.59375,0.5625 0.14823,0.1547 0.28812,0.315 0.4375,0.4688 0.22564,0.2256 0.45939,0.4329 0.6875,0.6562 0.11779,0.1225 0.22523,0.253 0.34375,0.375 0.22564,0.2256 0.45939,0.4329 0.6875,0.6563 0.11779,0.1225 0.22523,0.253 0.34375,0.375 0.31423,0.3142 0.64971,0.6277 0.96875,0.9375 0.0308,0.032 0.0628,0.062 0.0937,0.094 0.16635,0.1663 0.33231,0.3349 0.5,0.5 0.17857,0.1868 0.351,0.3769 0.53125,0.5625 0.32005,0.32 0.64372,0.6221 0.96875,0.9375 0.0308,0.032 0.0628,0.062 0.0937,0.094 0.21883,0.2117 0.43517,0.4153 0.65625,0.625 0.021,0.02 0.0415,0.042 0.0625,0.062 0.11781,0.1225 0.22521,0.2529 0.34375,0.375 0.21685,0.2097 0.43719,0.4173 0.65625,0.625 0.021,0.02 0.0415,0.042 0.0625,0.062 0.11781,0.1225 0.22521,0.2529 0.34375,0.375 0.21685,0.2097 0.43719,0.4173 0.65625,0.625 0.021,0.02 0.0415,0.042 0.0625,0.062 0.11781,0.1225 0.22521,0.2529 0.34375,0.375 0.17159,0.1715 0.35823,0.3297 0.53125,0.5 0.0427,0.041 0.0823,0.084 0.125,0.125 0.14339,0.1495 0.26178,0.32 0.40625,0.4687 0.32005,0.3201 0.64372,0.6221 0.96875,0.9375 0.0411,0.043 0.0838,0.083 0.125,0.125 0.17159,0.1716 0.35823,0.3297 0.53125,0.5 0.0323,0.031 0.0614,0.063 0.0937,0.094 0.15351,0.1602 0.28275,0.3407 0.4375,0.5 0.20274,0.2027 0.42026,0.3929 0.625,0.5938 0.15835,0.1653 0.30908,0.3356 0.46875,0.5 0.24662,0.2466 0.50042,0.4748 0.75,0.7187 0.11779,0.1226 0.22523,0.253 0.34375,0.375 0.24662,0.2466 0.50042,0.4749 0.75,0.7188 0.11779,0.1225 0.22523,0.253 0.34375,0.375 0.24662,0.2466 0.50042,0.4749 0.75,0.7187 0.11779,0.1226 0.22523,0.253 0.34375,0.375 0.32453,0.3245 0.67034,0.649 1,0.9688 0.0411,0.043 0.0838,0.083 0.125,0.125 0.18199,0.1819 0.3789,0.3507 0.5625,0.5312 0.0212,0.02 0.0413,0.042 0.0625,0.062 0.16361,0.1709 0.30372,0.3614 0.46875,0.5313 0.24719,0.2471 0.49984,0.5055 0.75,0.75 0.12268,0.1277 0.25153,0.2479 0.375,0.375 0.24662,0.2466 0.50042,0.4748 0.75,0.7187 0.12794,0.1332 0.24619,0.2737 0.375,0.4063 0.24662,0.2466 0.50042,0.4748 0.75,0.7187 0.12794,0.1332 0.24619,0.2737 0.375,0.4063 0.24662,0.2466 0.50042,0.4748 0.75,0.7187 0.12794,0.1332 0.24619,0.2737 0.375,0.4063 0.32977,0.3297 0.69618,0.6439 1.03125,0.9687 0.0463,0.048 0.0786,0.1084 0.125,0.1563 0.18714,0.1871 0.37366,0.3769 0.5625,0.5625 0.18866,0.1975 0.37196,0.3976 0.5625,0.5937 0.33054,0.3305 0.66415,0.6432 1,0.9688 0.0514,0.053 0.10475,0.1032 0.15625,0.1562 0.1871,0.1805 0.37376,0.3523 0.5625,0.5313 0.0734,0.072 0.14509,0.1468 0.21875,0.2187 0.12798,0.1333 0.24616,0.2736 0.375,0.4063 0.1854,0.1788 0.37549,0.3539 0.5625,0.5312 0.0734,0.072 0.14509,0.1468 0.21875,0.2188 0.12798,0.1332 0.24616,0.2736 0.375,0.4062 0.1854,0.1788 0.37549,0.3539 0.5625,0.5313 0.0734,0.072 0.14509,0.1468 0.21875,0.2187 0.12798,0.1333 0.24616,0.2736 0.375,0.4063 0.1854,0.1788 0.37549,0.3539 0.5625,0.5312 0.0157,0.015 0.0155,0.047 0.0312,0.062 0.18866,0.1976 0.37196,0.3976 0.5625,0.5938 0.27042,0.2704 0.56978,0.5141 0.84375,0.7812 0.11781,0.1226 0.22521,0.253 0.34375,0.375 0.29635,0.2964 0.60562,0.5826 0.90625,0.875 0.0966,0.1003 0.18419,0.2126 0.28125,0.3125 0.17489,0.1685 0.35493,0.3328 0.53125,0.5 0.0262,0.026 0.0363,0.068 0.0625,0.094 0.18866,0.1976 0.37196,0.3976 0.5625,0.5938 0.2676,0.2676 0.54142,0.5169 0.8125,0.7812 0.12794,0.1332 0.24619,0.2737 0.375,0.4063 0.2676,0.2676 0.54142,0.5169 0.8125,0.7812 0.12794,0.1332 0.24619,0.2737 0.375,0.4063 0.34007,0.34 0.7168,0.6651 1.0625,1 0.0566,0.058 0.0995,0.129 0.15625,0.1875 0.17332,0.1669 0.35652,0.3343 0.53125,0.5 0.0367,0.036 0.057,0.089 0.0937,0.125 0.18866,0.1975 0.37196,0.3976 0.5625,0.5937 0.34103,0.341 0.68456,0.6643 1.03125,1 0.0616,0.064 0.1257,0.1239 0.1875,0.1875 0.16589,0.1597 0.33282,0.3102 0.5,0.4688 0.14145,0.1393 0.26384,0.299 0.40625,0.4375 0.10149,0.1054 0.21047,0.2074 0.3125,0.3125 0.16438,0.1582 0.33436,0.3117 0.5,0.4687 0.0471,0.046 0.0777,0.1099 0.125,0.1563 0.18866,0.1975 0.37196,0.3976 0.5625,0.5937 0.35543,0.3554 0.73217,0.7128 1.09375,1.0625 0.0509,0.053 0.10524,0.1037 0.15625,0.1563 0.1629,0.1567 0.33586,0.3131 0.5,0.4687 0.11002,0.1084 0.2019,0.2359 0.3125,0.3438 0.13297,0.1385 0.27235,0.2684 0.40625,0.4062 0.16438,0.1582 0.33436,0.3117 0.5,0.4688 0.0524,0.052 0.10375,0.1047 0.15625,0.1562 0.19388,0.2031 0.36663,0.4234 0.5625,0.625 0.35152,0.3515 0.70497,0.6853 1.0625,1.0313 0.0616,0.064 0.1257,0.1238 0.1875,0.1875 0.15527,0.1493 0.31235,0.2892 0.46875,0.4375 0.0628,0.062 0.1245,0.1257 0.1875,0.1875 0.19388,0.2031 0.36663,0.4233 0.5625,0.625 0.27303,0.273 0.56709,0.5428 0.84375,0.8125 0.13809,0.1439 0.26716,0.2943 0.40625,0.4375 0.23391,0.2339 0.48218,0.456 0.71875,0.6875 0.17857,0.1868 0.351,0.3769 0.53125,0.5625 0.36573,0.3657 0.75276,0.7341 1.125,1.0937 0.0509,0.053 0.10524,0.1037 0.15625,0.1563 0.15247,0.1466 0.31519,0.2919 0.46875,0.4375 0.12565,0.1238 0.24859,0.2518 0.375,0.375 0.13813,0.1439 0.26711,0.2942 0.40625,0.4375 0.15385,0.1479 0.31379,0.2905 0.46875,0.4375 0.0733,0.072 0.14521,0.1467 0.21875,0.2187 0.19388,0.2031 0.36663,0.4234 0.5625,0.625 0.28333,0.2833 0.58776,0.5641 0.875,0.8438 0.13809,0.1439 0.26716,0.2943 0.40625,0.4375 0.35152,0.3515 0.70497,0.6853 1.0625,1.0312 0.0718,0.074 0.14665,0.1445 0.21875,0.2188 0.14464,0.1389 0.29188,0.2681 0.4375,0.4062 0.14131,0.1395 0.26398,0.2989 0.40625,0.4375 0.14312,0.1492 0.2933,0.2891 0.4375,0.4375 0.14331,0.1377 0.29323,0.2695 0.4375,0.4063 0.089,0.088 0.16065,0.1938 0.25,0.2812 0.19874,0.2083 0.39292,0.4183 0.59375,0.625 0.28858,0.2886 0.58237,0.559 0.875,0.8438 0.13809,0.1439 0.26716,0.2943 0.40625,0.4375 0.35543,0.3554 0.73217,0.7128 1.09375,1.0625 0.0718,0.074 0.14665,0.1445 0.21875,0.2187 0.14203,0.1364 0.29453,0.2707 0.4375,0.4063 0.1884,0.1859 0.3724,0.3781 0.5625,0.5625 0.10667,0.1108 0.20523,0.2333 0.3125,0.3437 0.13277,0.1274 0.27266,0.2483 0.40625,0.375 0.0994,0.098 0.18138,0.2148 0.28125,0.3125 0.19874,0.2083 0.39292,0.4183 0.59375,0.625 0.24964,0.2496 0.52858,0.4719 0.78125,0.7188 0.1838,0.1923 0.34567,0.4027 0.53125,0.5937 0.28858,0.2886 0.58237,0.559 0.875,0.8438 0.14823,0.1546 0.28812,0.3149 0.4375,0.4687 0.37603,0.376 0.77334,0.7554 1.15625,1.125 0.061,0.063 0.12628,0.1245 0.1875,0.1875 0.13158,0.1263 0.27386,0.2495 0.40625,0.375 0.10985,0.1085 0.20207,0.2358 0.3125,0.3438 0.19874,0.2083 0.39292,0.4182 0.59375,0.625 0.38299,0.3829 0.76612,0.7486 1.15625,1.125 0.061,0.063 0.12628,0.1244 0.1875,0.1875 0.12335,0.1182 0.25094,0.2261 0.375,0.3437 0.12026,0.1189 0.2228,0.2567 0.34375,0.375 0.19874,0.2083 0.39292,0.4183 0.59375,0.625 0.29363,0.2936 0.60842,0.5853 0.90625,0.875 0.14823,0.1547 0.28812,0.315 0.4375,0.4688 0.29907,0.299 0.60283,0.5799 0.90625,0.875 0.14823,0.1546 0.28812,0.3149 0.4375,0.4687 0.38127,0.3813 0.79915,0.7503 1.1875,1.125 0.0662,0.069 0.12104,0.1503 0.1875,0.2188 0.12112,0.1161 0.25319,0.2282 0.375,0.3437 0.17775,0.1758 0.35199,0.3569 0.53125,0.5313 0.14828,0.1547 0.28806,0.3149 0.4375,0.4687 0.12221,0.1172 0.25209,0.2272 0.375,0.3438 0.22483,0.2223 0.42899,0.4674 0.65625,0.6875 0.11158,0.116 0.23152,0.2282 0.34375,0.3437 0.11164,0.1069 0.23153,0.2061 0.34375,0.3125 0.1411,0.1397 0.26419,0.2987 0.40625,0.4375 0.19874,0.2083 0.39292,0.4183 0.59375,0.625 0.30956,0.3096 0.62328,0.601 0.9375,0.9063 0.14823,0.1546 0.28812,0.3149 0.4375,0.4687 0.30956,0.3096 0.62328,0.601 0.9375,0.9063 0.14823,0.1546 0.28812,0.3149 0.4375,0.4687 0.30956,0.3096 0.62328,0.601 0.9375,0.9063 0.14823,0.1546 0.28812,0.3149 0.4375,0.4687 0.39348,0.3935 0.78649,0.7698 1.1875,1.1563 0.0711,0.074 0.14733,0.1452 0.21875,0.2187 0.10202,0.098 0.21,0.1841 0.3125,0.2813 0.15666,0.1552 0.3109,0.3146 0.46875,0.4687 0.20396,0.2139 0.38759,0.444 0.59375,0.6563 0.3725,0.3725 0.74575,0.7275 1.125,1.0937 0.0922,0.096 0.18855,0.1858 0.28125,0.2813 0.10202,0.098 0.21,0.184 0.3125,0.2812 0.2507,0.2484 0.49627,0.5045 0.75,0.75 0.11675,0.1215 0.22628,0.2541 0.34375,0.375 0.10107,0.097 0.21096,0.185 0.3125,0.2813 0.2507,0.2483 0.49627,0.5044 0.75,0.75 0.11675,0.1214 0.22628,0.254 0.34375,0.375 0.10107,0.097 0.21096,0.1849 0.3125,0.2812 0.21416,0.2122 0.40863,0.4461 0.625,0.6563 0.15326,0.1599 0.31426,0.3097 0.46875,0.4687 0.10107,0.097 0.21096,0.185 0.3125,0.2813 0.21416,0.2121 0.40863,0.4461 0.625,0.6562 0.15326,0.16 0.31426,0.3097 0.46875,0.4688 0.10107,0.097 0.21096,0.1849 0.3125,0.2812 0.16711,0.1656 0.33154,0.3357 0.5,0.5 0.20396,0.2139 0.38759,0.444 0.59375,0.6563 0.37603,0.376 0.77334,0.7553 1.15625,1.125 0.0922,0.096 0.18855,0.1858 0.28125,0.2812 0.10017,0.096 0.21186,0.1858 0.3125,0.2813 0.21935,0.2173 0.43458,0.441 0.65625,0.6562 0.15841,0.1654 0.30901,0.3356 0.46875,0.5 0.0905,0.087 0.19039,0.1639 0.28125,0.25 0.22968,0.2278 0.45527,0.4621 0.6875,0.6875 0.15841,0.1654 0.30901,0.3356 0.46875,0.5 0.0905,0.087 0.19039,0.1639 0.28125,0.25 0.22968,0.2278 0.45527,0.4621 0.6875,0.6875 0.15841,0.1654 0.30901,0.3356 0.46875,0.5 0.0905,0.087 0.19039,0.1639 0.28125,0.25 0.18272,0.1812 0.34692,0.3828 0.53125,0.5625 0.20881,0.2191 0.41388,0.4389 0.625,0.6563 0.40397,0.4039 0.80684,0.7909 1.21875,1.1875 0.0813,0.084 0.16838,0.1659 0.25,0.25 0.0806,0.077 0.16905,0.142 0.25,0.2187 0.19307,0.1917 0.36763,0.4038 0.5625,0.5938 0.20881,0.219 0.41388,0.4389 0.625,0.6562 0.38299,0.383 0.76612,0.7487 1.15625,1.125 0.10245,0.1064 0.2095,0.2065 0.3125,0.3125 0.0806,0.077 0.16905,0.142 0.25,0.2188 0.25044,0.2486 0.49653,0.5042 0.75,0.75 0.15841,0.1654 0.30901,0.3355 0.46875,0.5 0.0799,0.076 0.16983,0.1427 0.25,0.2187 0.25044,0.2486 0.49653,0.5042 0.75,0.75 0.15841,0.1654 0.30901,0.3356 0.46875,0.5 0.0799,0.076 0.16983,0.1427 0.25,0.2188 0.25044,0.2486 0.49653,0.5042 0.75,0.75 0.15841,0.1654 0.30901,0.3355 0.46875,0.5 0.0799,0.076 0.16983,0.1427 0.25,0.2187 0.2035,0.202 0.38825,0.4249 0.59375,0.625 0.20881,0.2191 0.41388,0.4389 0.625,0.6563 0.38833,0.3883 0.79183,0.7435 1.1875,1.125 0.10763,0.1118 0.20426,0.2323 0.3125,0.3437 0.0699,0.067 0.14858,0.121 0.21875,0.1875 0.30771,0.3058 0.59396,0.636 0.90625,0.9375 0.12166,0.1266 0.25257,0.249 0.375,0.375 0.0693,0.066 0.14926,0.1216 0.21875,0.1875 0.21383,0.2125 0.40896,0.4458 0.625,0.6563 0.20881,0.219 0.41388,0.4389 0.625,0.6562 0.28586,0.2859 0.58517,0.5616 0.875,0.8438 0.20881,0.219 0.41388,0.4389 0.625,0.6562 0.34314,0.3432 0.71363,0.6622 1.0625,1 0.15698,0.1639 0.31047,0.3371 0.46875,0.5 0.33269,0.3327 0.66192,0.6723 1,1 0.16339,0.1707 0.33521,0.3304 0.5,0.5 0.0693,0.066 0.14926,0.1216 0.21875,0.1875 0.21901,0.2176 0.43492,0.4408 0.65625,0.6563 0.21402,0.2246 0.40855,0.4646 0.625,0.6875 0.39348,0.3934 0.78649,0.7698 1.1875,1.1562 0.11263,0.1171 0.23045,0.2271 0.34375,0.3438 0.0592,0.056 0.12811,0.1 0.1875,0.1562 0.28146,0.28 0.55845,0.5674 0.84375,0.8438 0.16854,0.1761 0.32996,0.3562 0.5,0.5312 0.0587,0.056 0.12869,0.1005 0.1875,0.1563 0.28146,0.2799 0.55845,0.5673 0.84375,0.8437 0.16854,0.1762 0.32996,0.3562 0.5,0.5313 0.0587,0.056 0.12869,0.1004 0.1875,0.1562 0.28146,0.28 0.55845,0.5674 0.84375,0.8438 0.16854,0.1761 0.32996,0.3562 0.5,0.5312 0.0587,0.056 0.12869,0.1005 0.1875,0.1563 0.23975,0.2384 0.47621,0.4828 0.71875,0.7187 0.21402,0.2246 0.40855,0.4647 0.625,0.6875 0.42495,0.425 0.84751,0.8333 1.28125,1.25 0.0914,0.095 0.18942,0.1867 0.28125,0.2813 0.0485,0.046 0.10764,0.079 0.15625,0.125 0.25005,0.2489 0.49692,0.5038 0.75,0.75 0.21402,0.2246 0.40855,0.4646 0.625,0.6875 0.39882,0.3988 0.81219,0.7646 1.21875,1.1562 0.11781,0.1226 0.22521,0.253 0.34375,0.375 0.0485,0.046 0.10764,0.079 0.15625,0.125 0.30216,0.3008 0.59966,0.6095 0.90625,0.9063 0.16854,0.1761 0.32996,0.3562 0.5,0.5312 0.048,0.046 0.10813,0.079 0.15625,0.125 0.30216,0.3008 0.59966,0.6095 0.90625,0.9063 0.16854,0.1761 0.32996,0.3562 0.5,0.5312 0.048,0.046 0.10813,0.079 0.15625,0.125 0.30216,0.3008 0.59966,0.6095 0.90625,0.9063 0.16854,0.1761 0.32996,0.3562 0.5,0.5312 0.048,0.046 0.10813,0.079 0.15625,0.125 0.26047,0.2593 0.51749,0.525 0.78125,0.7813 0.21402,0.2246 0.40855,0.4646 0.625,0.6875 0.40187,0.4018 0.84027,0.7929 1.25,1.1875 0.11781,0.1225 0.22521,0.2529 0.34375,0.375 0.0476,0.045 0.10853,0.08 0.15625,0.125 0.3074,0.306 0.59427,0.6357 0.90625,0.9375 0.1735,0.1814 0.35616,0.351 0.53125,0.5312 0.0374,0.036 0.0876,0.058 0.125,0.094 0.35932,0.3581 0.69692,0.7415 1.0625,1.0938 0.13172,0.1372 0.27361,0.2697 0.40625,0.4062 0.0374,0.036 0.0876,0.058 0.125,0.094 0.35932,0.3581 0.69692,0.7415 1.0625,1.0938 0.13172,0.1372 0.27361,0.2697 0.40625,0.4062 0.0374,0.036 0.0876,0.058 0.125,0.094 0.31766,0.3166 0.61495,0.6567 0.9375,0.9688 0.1735,0.1814 0.35616,0.351 0.53125,0.5312 0.0374,0.036 0.0876,0.058 0.125,0.094 0.276,0.2751 0.53281,0.5721 0.8125,0.8438 0.21887,0.2298 0.43484,0.4595 0.65625,0.6875 0.43544,0.4354 0.86783,0.8544 1.3125,1.2812 0.10149,0.1054 0.21047,0.2075 0.3125,0.3125 0.027,0.026 0.0667,0.037 0.0937,0.062 0.28627,0.2856 0.5535,0.5931 0.84375,0.875 0.21887,0.2298 0.43484,0.4596 0.65625,0.6875 0.36201,0.362 0.72536,0.7064 1.09375,1.0625 0.17857,0.1868 0.351,0.377 0.53125,0.5625 0.36201,0.362 0.72536,0.7064 1.09375,1.0625 0.17857,0.1868 0.351,0.377 0.53125,0.5625 0.36201,0.362 0.72536,0.7064 1.09375,1.0625 0.17857,0.1868 0.351,0.377 0.53125,0.5625 0.44078,0.4408 0.89351,0.8493 1.34375,1.2813 0.10667,0.1108 0.20523,0.2333 0.3125,0.3437 0.0163,0.015 0.0462,0.016 0.0625,0.031 0.34332,0.3428 0.6822,0.6938 1.03125,1.0313 0.17865,0.1869 0.35091,0.3768 0.53125,0.5625 0.0267,0.025 0.067,0.037 0.0937,0.062 0.38515,0.3842 0.7639,0.7787 1.15625,1.1562 0.13689,0.1427 0.26837,0.2956 0.40625,0.4375 0.0161,0.015 0.0464,0.016 0.0625,0.031 0.30693,0.3065 0.59474,0.6353 0.90625,0.9375 0.21887,0.2298 0.43484,0.4596 0.65625,0.6875 0.31197,0.312 0.65204,0.5987 0.96875,0.9063 0.23412,0.2461 0.45047,0.506 0.6875,0.75 0.36735,0.3673 0.75108,0.7012 1.125,1.0625 0.1838,0.1923 0.34567,0.4027 0.53125,0.5937 0.44307,0.4431 0.92238,0.8783 1.375,1.3125 0.10667,0.1109 0.20523,0.2333 0.3125,0.3438 0.016,0.015 0.0465,0.016 0.0625,0.031 0.35373,0.3532 0.70269,0.7149 1.0625,1.0625 0.17865,0.1869 0.35091,0.3768 0.53125,0.5625 0.0161,0.015 0.0464,0.016 0.0625,0.031 0.40576,0.4051 0.80499,0.821 1.21875,1.2187 0.13689,0.1427 0.26837,0.2956 0.40625,0.4375 0.005,0 0.0259,-0.01 0.0312,0 0.32234,0.3222 0.64135,0.6513 0.96875,0.9688 0.22407,0.2354 0.42951,0.4853 0.65625,0.7187 0.32236,0.3224 0.67258,0.6199 1,0.9375 0.23412,0.2462 0.45047,0.506 0.6875,0.75 0.3725,0.3725 0.74575,0.7276 1.125,1.0938 0.18866,0.1975 0.37196,0.3976 0.5625,0.5937 0.56666,0.5667 1.13646,1.1042 1.71875,1.6563 0.005,0.01 -0.005,0.026 0,0.031 0.37428,0.3742 0.7439,0.757 1.125,1.125 0.18361,0.1921 0.37711,0.3716 0.5625,0.5625 0.005,0 0.0259,-0.01 0.0312,0 0.33275,0.3325 0.66187,0.6724 1,1 0.22407,0.2354 0.42951,0.4853 0.65625,0.7187 0.37603,0.376 0.77334,0.7554 1.15625,1.125 0.18866,0.1976 0.37196,0.3976 0.5625,0.5938 0.56666,0.5666 1.13646,1.1041 1.71875,1.6562 0.005,0.01 -0.005,0.026 0,0.031 0.56666,0.5667 1.13646,1.1354 1.71875,1.6875 0.005,0 -0.005,0.026 0,0.031 0.34833,0.3483 0.70826,0.6884 1.0625,1.0313 0.22407,0.2354 0.42951,0.4853 0.65625,0.7187 0.38299,0.383 0.76612,0.7487 1.15625,1.125 0.18866,0.1976 0.37196,0.3976 0.5625,0.5938 0.56666,0.5666 1.16771,1.1354 1.75,1.6875 0.005,0 -0.005,0.026 0,0.031 0.56666,0.5666 1.13646,1.1354 1.71875,1.6875 0.0154,0.016 0.0158,0.047 0.0312,0.062 0.34833,0.3483 0.70826,0.6884 1.0625,1.0312 0.22407,0.2354 0.42951,0.4853 0.65625,0.7188 0.33275,0.3327 0.69311,0.641 1.03125,0.9687 0.24415,0.257 0.47143,0.5267 0.71875,0.7813 0.38833,0.3883 0.79183,0.7435 1.1875,1.125 0.19388,0.2031 0.36663,0.4233 0.5625,0.625 0.56666,0.5666 1.16771,1.1354 1.75,1.6875 0.0155,0.016 0.0157,0.046 0.0312,0.062 0.35349,0.3534 0.70293,0.7146 1.0625,1.0625 0.22891,0.2406 0.4558,0.4802 0.6875,0.7187 0.56666,0.5667 1.13646,1.1042 1.71875,1.6563 0.0258,0.027 0.0367,0.067 0.0625,0.094 0.56666,0.5666 1.13646,1.1354 1.71875,1.6875 0.0256,0.026 0.0369,0.067 0.0625,0.094 0.35349,0.3534 0.70293,0.7146 1.0625,1.0625 0.22891,0.2406 0.4558,0.4802 0.6875,0.7187 0.56666,0.5667 1.16771,1.1354 1.75,1.6875 0.0256,0.026 0.0369,0.067 0.0625,0.094 0.56666,0.5667 1.13646,1.1354 1.71875,1.6875 0.0258,0.027 0.0367,0.067 0.0625,0.094 0.36388,0.3639 0.72342,0.7359 1.09375,1.0938 0.22891,0.2406 0.4558,0.4802 0.6875,0.7187 0.56666,0.5667 1.13646,1.1042 1.71875,1.6563 0.0361,0.037 0.0576,0.088 0.0937,0.125 0.36388,0.3638 0.72342,0.7358 1.09375,1.0937 0.22891,0.2406 0.4558,0.4802 0.6875,0.7188 0.39663,0.3966 0.81447,0.798 1.21875,1.1875 0.19874,0.2083 0.39292,0.4182 0.59375,0.625 0.40397,0.4039 0.80684,0.7909 1.21875,1.1875 0.19874,0.2083 0.39292,0.4182 0.59375,0.625 0.40397,0.4039 0.80684,0.7909 1.21875,1.1875 0.19874,0.2083 0.39292,0.4182 0.59375,0.625 0.56666,0.5666 1.16771,1.1354 1.75,1.6875 0.0361,0.037 0.0576,0.088 0.0937,0.125 0.36913,0.3691 0.74924,0.7308 1.125,1.0937 0.23412,0.2462 0.45047,0.506 0.6875,0.75 0.35353,0.3535 0.73413,0.6834 1.09375,1.0313 0.24913,0.2623 0.49756,0.5213 0.75,0.7812 0.56666,0.5667 1.13646,1.1354 1.71875,1.6875 0.0463,0.048 0.0786,0.1084 0.125,0.1563 0.56666,0.5666 1.13646,1.1354 1.71875,1.6875 0.0463,0.048 0.0786,0.1084 0.125,0.1562 0.56666,0.5667 1.13646,1.1354 1.71875,1.6875 0.0463,0.048 0.0786,0.1084 0.125,0.1563 0.37952,0.3795 0.76972,0.752 1.15625,1.125 0.23412,0.2461 0.45047,0.506 0.6875,0.75 0.56666,0.5666 1.13646,1.1041 1.71875,1.6562 0.0566,0.059 0.0995,0.1291 0.15625,0.1875 0.37952,0.3795 0.76972,0.752 1.15625,1.125 0.23412,0.2462 0.45047,0.506 0.6875,0.75 0.35353,0.3535 0.73413,0.6834 1.09375,1.0313 0.26417,0.2785 0.51335,0.5679 0.78125,0.8437 0.56666,0.5667 1.13646,1.1042 1.71875,1.6563 0.0566,0.058 0.0995,0.129 0.15625,0.1875 0.38992,0.3899 0.79018,0.7732 1.1875,1.1562 0.23412,0.2462 0.45047,0.506 0.6875,0.75 0.41446,0.4145 0.82718,0.8121 1.25,1.2188 0.20881,0.219 0.41388,0.4389 0.625,0.6562 0.56666,0.5667 1.16771,1.1354 1.75,1.6875 0.0566,0.059 0.0995,0.1291 0.15625,0.1875 0.38992,0.3899 0.79018,0.7732 1.1875,1.1563 0.23412,0.2461 0.45047,0.506 0.6875,0.75 0.41723,0.4172 0.85555,0.8406 1.28125,1.25 0.20881,0.219 0.41388,0.4389 0.625,0.6562 0.56666,0.5667 1.13646,1.1042 1.71875,1.6563 0.0668,0.069 0.12046,0.1497 0.1875,0.2187 0.39507,0.3951 0.78483,0.7995 1.1875,1.1875 0.23895,0.2514 0.47676,0.5009 0.71875,0.75 0.42495,0.425 0.84751,0.8333 1.28125,1.25 0.20881,0.2191 0.41388,0.4389 0.625,0.6563 0.56666,0.5666 1.13646,1.1041 1.71875,1.6562 0.077,0.08 0.14141,0.1704 0.21875,0.25 0.39507,0.3951 0.78483,0.7995 1.1875,1.1875 0.23895,0.2514 0.47676,0.5009 0.71875,0.75 0.56666,0.5667 1.13646,1.1042 1.71875,1.6563 0.077,0.08 0.14141,0.1703 0.21875,0.25 0.56666,0.5666 1.13646,1.1354 1.71875,1.6875 0.077,0.08 0.14141,0.1703 0.21875,0.25 0.56666,0.5666 1.13646,1.1354 1.71875,1.6875 0.077,0.08 0.14141,0.1703 0.21875,0.25 0.56666,0.5666 1.13646,1.1354 1.71875,1.6875 0.077,0.08 0.14141,0.1703 0.21875,0.25 0.40547,0.4054 0.80528,0.8207 1.21875,1.2187 0.23895,0.2514 0.47676,0.5009 0.71875,0.75 0.56666,0.5667 1.13646,1.1042 1.71875,1.6563 0.0872,0.091 0.16236,0.191 0.25,0.2812 0.40547,0.4055 0.80528,0.8207 1.21875,1.2188 0.23895,0.2513 0.47676,0.5009 0.71875,0.75 0.43277,0.4327 0.90187,0.8569 1.34375,1.2812 0.21402,0.2246 0.40855,0.4647 0.625,0.6875 0.44078,0.4408 0.89351,0.8493 1.34375,1.2813 0.21402,0.2246 0.40855,0.4646 0.625,0.6875 0.44078,0.4407 0.89351,0.8492 1.34375,1.2812 0.21402,0.2246 0.40855,0.4647 0.625,0.6875 0.56666,0.5667 1.13646,1.1042 1.71875,1.6563 0.0966,0.1002 0.18419,0.2125 0.28125,0.3125 0.56666,0.5666 1.13646,1.1354 1.71875,1.6875 0.0872,0.091 0.16236,0.191 0.25,0.2812 0.56666,0.5667 1.13646,1.1354 1.71875,1.6875 0.0966,0.1003 0.18419,0.2126 0.28125,0.3125 9.06662,9.0667 20.12077,16.2605 33.1875,21.5938 13.33325,5.3333 28.27906,8 44.8125,8 20.53319,0 42.39359,-5.0542 65.59375,-15.1875 l -4.8125,-28.4063 c -0.50923,0.2238 -1.02001,0.439 -1.53125,0.6563 l -0.4375,-2.6563 c -0.51803,0.2276 -1.04239,0.4353 -1.5625,0.6563 l -0.4375,-2.625 c -0.50923,0.2237 -1.02001,0.4389 -1.53125,0.6562 l -0.4375,-2.625 c -0.50923,0.2238 -1.02001,0.439 -1.53125,0.6563 l -0.44325,-2.6241 c -0.50923,0.2238 -1.02001,0.439 -1.53125,0.6563 l -0.4375,-2.625 c -0.50923,0.2237 -1.02001,0.4389 -1.53125,0.6562 l -0.4375,-2.625 c -0.50923,0.2238 -1.02001,0.439 -1.53125,0.6563 l -0.4375,-2.625 c -0.49671,0.2182 -1.00138,0.4129 -1.5,0.625 l -0.4375,-2.5625 c -0.49671,0.2182 -1.00138,0.4129 -1.5,0.625 l -0.4375,-2.5938 c -0.50923,0.2238 -1.02001,0.439 -1.53125,0.6563 L 605,1273.1122 c -0.49671,0.2183 -1.00138,0.4129 -1.5,0.625 l -0.4375,-2.5625 c -0.48792,0.2144 -0.97899,0.4166 -1.46875,0.625 l -0.4375,-2.5625 c -0.49278,0.2165 -1.00534,0.4145 -1.5,0.625 l -0.4375,-2.5312 c -0.49671,0.2182 -1.00138,0.4129 -1.5,0.625 l -0.4375,-2.5625 c -0.48792,0.2143 -0.97899,0.4165 -1.46875,0.625 l -0.4375,-2.5313 c -0.48792,0.2144 -0.97899,0.4166 -1.46875,0.625 l -0.4375,-2.5312 c -0.48954,0.2151 -0.97735,0.4158 -1.46875,0.625 l -0.4375,-2.5625 c -0.48792,0.2143 -0.97899,0.4165 -1.46875,0.625 l -0.4375,-2.5 c -0.48792,0.2143 -0.97899,0.4165 -1.46875,0.625 l -0.4375,-2.5313 c -0.48792,0.2144 -0.97899,0.4166 -1.46875,0.625 l -0.4375,-2.5312 c -0.47912,0.2105 -0.9566,0.4202 -1.4375,0.625 l -0.4375,-2.5 c -0.48792,0.2143 -0.97899,0.4165 -1.46875,0.625 l -0.40625,-2.5 c -0.47912,0.2105 -0.9566,0.4202 -1.4375,0.625 l -0.4375,-2.5313 c -0.48792,0.2144 -0.97899,0.4166 -1.46875,0.625 l -0.40625,-2.4687 c -0.48587,0.2134 -0.98105,0.3861 -1.46875,0.5937 l -0.40625,-2.4687 c -0.47912,0.2105 -0.9566,0.4202 -1.4375,0.625 l -0.4375,-2.5 c -0.47539,0.2088 -0.96036,0.3905 -1.4375,0.5937 l -0.40625,-2.4375 c -0.47539,0.2089 -0.96036,0.3905 -1.4375,0.5938 l -0.40625,-2.4688 c -0.48792,0.2144 -0.97899,0.4166 -1.46875,0.625 l -0.40625,-2.4687 c -0.47539,0.2088 -0.96036,0.3905 -1.4375,0.5937 l -0.40625,-2.4375 c -0.4666,0.205 -0.93797,0.3942 -1.40625,0.5938 l -0.25,-1.5313 68.875,0 -0.25,0.4063 3.15625,0 -1.21875,1.9375 3.1875,0 -1.25,1.9687 3.1875,0 -1.21875,1.9375 3.15625,0 -1.21875,1.9375 3.21875,0 -1.25,1.9688 3.21875,0 -1.25,1.9687 3.21875,0 -1.25,1.9688 3.21875,0 -1.25,1.9687 3.21875,0 -1.25,1.9688 3.21875,0 -1.25,2 3.25,0 -1.25,1.9687 44.78125,0 0,0.375 1.78125,0 0,1.8125 1.8125,0 0,1.7813 1.8125,0 0,1.8125 1.78125,0 0,1.8125 1.84375,0 0,1.8125 1.8125,0 0,1.8125 1.8125,0 0,1.8125 1.84375,0 0,1.8437 1.8125,0 0,1.8438 1.84375,0 0,1.8125 1.84375,0 0,1.8437 1.84375,0 0,1.875 1.84375,0 0,1.8438 1.875,0 0,1.8437 1.875,0 0,1.875 1.84375,0 0,1.875 1.875,0 0,1.875 1.875,0 0,1.875 1.90625,0 0,1.875 1.875,0 0,1.875 1.90625,0 0,1.9063 1.875,0 0,1.9062 1.90625,0 0,1.9063 1.90625,0 0,1.9062 1.9375,0 0,1.9063 1.90625,0 0,1.9062 1.90625,0 0,1.9375 1.9375,0 0,1.9375 1.9375,0 0,1.9063 1.9375,0 0,1.9375 1.9375,0 0,1.9687 1.9375,0 0,1.9375 1.96875,0 0,1.9375 1.96875,0 0,1.9688 1.9375,0 0,1.9687 1.96875,0 0,1.9688 2,0 0,1.9687 1.96875,0 0,1.9688 1.96875,0 0,2 2,0 0,1.9687 40,0 0,-76 34,0 0,-34.4062 -2,0 0,-1.9688 -1.96875,0 0,-2 -1.96875,0 0,-1.9687 -2,0 0,-1.9688 -1.96875,0 0,-1.9687 -1.9375,0 0,-1.9688 -1.96875,0 0,-1.9375 -1.96875,0 0,-1.9687 -1.9375,0 0,-1.9375 -1.9375,0 0,-1.9375 -1.9375,0 0,-1.9375 -1.9375,0 0,-1.9375 -1.9375,0 0,-1.9375 -1.90625,0 0,-1.9063 -1.90625,0 0,-1.9375 -1.9375,0 0,-1.9062 -1.90625,0 0,-1.9063 -0.875,0 0,-136.5 -2,0 0,-1.9687 -1.96875,0 0,-2 -1.96875,0 0,-1.9688 -2,0 0,-1.9687 -1.96875,0 0,-1.9688 -1.9375,0 0,-1.9687 -1.96875,0 0,-1.9688 -1.96875,0 0,-1.9375 -1.9375,0 0,-1.9375 -1.9375,0 0,-1.9687 -1.9375,0 0,-1.9375 -1.9375,0 0,-1.9063 -1.9375,0 0,-1.9375 -1.90625,0 0,-1.9375 -1.90625,0 0,-1.9062 -1.9375,0 0,-1.9063 -1.90625,0 0,-1.9062 -1.90625,0 0,-1.9063 -1.875,0 0,-1.9062 -1.90625,0 0,-1.9063 -1.875,0 0,-1.875 -1.90625,0 0,-1.875 -1.875,0 0,-1.875 -1.875,0 0,-1.875 -1.84375,0 0,-1.875 -1.875,0 0,-1.875 -1.875,0 0,-1.8437 -1.84375,0 0,-1.8438 -1.84375,0 0,-1.875 -1.84375,0 0,-1.84375 -1.84375,0 0,-1.8125 -1.8125,0 0,-1.84375 -1.84375,0 0,-1.84375 -1.8125,0 0,-1.8125 -1.8125,0 0,-1.8125 -1.84375,0 0,-1.8125 -1.78125,0 0,-1.8125 -1.8125,0 0,-1.8125 -1.8125,0 0,-1.78125 -1.78125,0 0,-1.8125 -1.78125,0 0,-1.78125 -1.78125,0 0,-1.78125 -1.78125,0 0,-1.78125 -1.78125,0 0,-1.78125 -1.78125,0 0,-1.75 -1.75,0 0,-1.78125 -1.75,0 0,-1.75 -1.75,0 0,-1.75 -1.75,0 0,-1.75 -1.75,0 0,-1.75 -1.75,0 0,-1.71875 -1.71875,0 0,-1.75 -1.75,0 0,-1.71875 -1.71875,0 0,-1.71875 -1.71875,0 0,-1.71875 -1.71875,0 0,-1.71875 -1.6875,0 0,-1.71875 -1.71875,0 0,-1.6875 -1.6875,0 0,-1.71875 -1.6875,0 0,-1.6875 -1.71875,0 0,-1.6875 -1.65625,0 0,-1.6875 -1.6875,0 0,-1.6875 -1.6875,0 0,-1.65625 -1.65625,0 0,-1.6875 -1.65625,0 0,-1.65625 -1.65625,0 0,-1.65625 -1.65625,0 0,-1.65625 -1.65625,0 0,-1.65625 -1.65625,0 0,-1.625 -1.625,0 0,-1.65625 -1.65625,0 0,-1.625 -1.625,0 0,-1.625 -1.625,0 0,-1.625 -1.59375,0 0,-1.625 -1.625,0 0,-1.625 -1.625,0 0,-1.59375 -1.59375,0 0,-1.625 -1.59375,0 0,-1.59375 -1.59375,0 0,-1.59375 -1.59375,0 0,-1.59375 -1.59375,0 0,-1.5625 -1.5625,0 0,-1.59375 -1.59375,0 0,-1.5625 -1.5625,0 0,-1.59375 -1.5625,0 0,-1.5625 -1.5625,0 0,-1.5625 -1.5625,0 0,-1.53125 -1.53125,0 0,-1.5625 -1.5625,0 0,-1.53125 -1.53125,0 0,-1.5625 -1.53125,0 0,-1.53125 -1.53125,0 0,-1.53125 -1.53125,0 0,-1.5 -1.5,0 0,-1.53125 -1.53125,0 0,-1.53125 -1.5,0 0,-1.5 -1.5,0 0,-1.5 -1.5,0 0,-1.5 -1.5,0 0,-1.5 -1.5,0 0,-1.5 -1.46875,0 0,-1.46875 -1.5,0 0,-1.46875 -1.46875,0 0,-1.5 -1.46875,0 0,-1.46875 -1.46875,0 0,-1.46875 -1.46875,0 0,-1.4375 -1.4375,0 0,-1.46875 -1.46875,0 0,-1.4375 -1.4375,0 0,-1.46875 -1.4375,0 0,-1.4375 -1.4375,0 0,-1.4375 -1.4375,0 0,-1.40625 -1.40625,0 0,-1.4375 -1.4375,0 0,-1.40625 -1.40625,0 0,-1.4375 -1.40625,0 0,-1.40625 -1.40625,0 0,-1.40625 -1.40625,0 0,-1.40625 -1.40625,0 0,-1.375 -1.375,0 0,-1.40625 -1.375,0 0,-1.375 -1.40625,0 0,-1.375 -1.375,0 0,-1.375 -1.375,0 0,-1.375 -1.34375,0 0,-1.375 -1.375,0 0,-1.34375 -1.34375,0 0,-1.375 -1.34375,0 0,-1.34375 -1.34375,0 0,-1.34375 -1.34375,0 0,-1.34375 -1.34375,0 0,-1.34375 -1.34375,0 0,-1.3125 -1.3125,0 0,-1.34375 -1.3125,0 0,-1.3125 -1.3125,0 0,-1.3125 -1.3125,0 0,-1.3125 -1.3125,0 0,-1.3125 -1.3125,0 0,-1.28125 -1.28125,0 0,-1.3125 -1.3125,0 0,-1.28125 -1.28125,0 0,-1.28125 -1.28125,0 0,-1.28125 -1.28125,0 0,-1.28125 -1.25,0 0,-1.28125 -1.28125,0 0,-1.25 -1.25,0 0,-1.28125 -1.25,0 0,-1.25 -1.25,0 0,-1.25 -1.25,0 0,-1.25 -1.25,0 0,-1.25 -1.25,0 0,-1.21875 -1.21875,0 0,-1.25 -1.21875,0 0,-1.21875 -1.21875,0 0,-1.21875 -1.21875,0 0,-1.21875 -1.21875,0 0,-1.21875 -1.21875,0 0,-1.1875 -1.1875,0 0,-1.21875 -1.1875,0 0,-1.1875 -1.1875,0 0,-1.1875 -1.1875,0 0,-1.1875 -1.1875,0 0,-1.1875 -1.1875,0 0,-1.1875 -1.15625,0 0,-1.15625 -1.1875,0 0,-1.15625 -1.15625,0 0,-1.1875 -1.15625,0 0,-1.15625 -1.15625,0 0,-1.125 -1.125,0 0,-1.15625 -1.15625,0 0,-1.15625 -1.125,0 0,-1.125 -1.15625,0 0,-1.125 -1.125,0 0,-1.125 -1.125,0 0,-1.125 -1.09375,0 0,-1.125 -1.125,0 0,-1.09375 -1.09375,0 0,-1.125 -1.125,0 0,-1.09375 -1.09375,0 0,-1.09375 -1.09375,0 0,-1.09375 -1.0625,0 0,-1.09375 -1.09375,0 0,-1.09375 -1.09375,0 0,-1.0625 -1.0625,0 0,-1.0625 -1.0625,0 0,-1.09375 -1.0625,0 0,-1.0625 -1.0625,0 0,-1.03125 -1.03125,0 0,-1.0625 -1.0625,0 0,-1.0625 -1.03125,0 0,-1.03125 -1.0625,0 0,-1.03125 -1.03125,0 0,-1.03125 -1,0 0,-1.03125 -1.03125,0 0,-1.03125 -1.03125,0 0,-1 -1,0 0,-1.03125 -1,0 0,-1 -1,0 0,-1 -1,0 0,-1 -1,0 0,-1 -1,0 0,-0.96875 -0.96875,0 0,-1 -0.96875,0 0,-0.96875 -1,0 0,-0.96875 -0.96875,0 0,-0.96875 -0.9375,0 0,-0.96875 -0.96875,0 0,-0.96875 -0.9375,0 0,-0.9375 -0.96875,0 0,-0.9375 -0.9375,0 0,-0.96875 -0.9375,0 0,-0.9375 -0.9375,0 0,-0.90625 -0.9375,0 0,-0.9375 -0.90625,0 0,-0.9375 -0.90625,0 0,-0.90625 -0.9375,0 0,-0.90625 -0.90625,0 0,-0.90625 -0.90625,0 0,-0.90625 -0.875,0 0,-0.90625 -0.90625,0 0,-0.875 -0.875,0 0,-0.90625 -0.90625,0 0,-0.875 -0.875,0 0,-0.875 -0.875,0 0,-0.875 -0.84375,0 0,-0.875 -0.875,0 0,-0.875 -0.84375,0 0,-0.84375 -0.875,0 0,-0.84375 -0.84375,0 0,-0.875 -0.84375,0 0,-0.84375 -0.84375,0 0,-0.8125 -0.8125,0 0,-0.84375 -0.84375,0 0,-0.84375 -0.8125,0 0,-0.8125 -0.8125,0 0,-0.8125 -0.8125,0 0,-0.8125 -0.8125,0 0,-0.8125 -0.8125,0 0,-0.8125 -0.8125,0 0,-0.78125 -0.78125,0 0,-0.8125 -0.78125,0 0,-0.78125 -0.78125,0 0,-0.78125 -0.78125,0 0,-0.78125 -0.78125,0 0,-0.78125 -0.78125,0 0,-0.75 -0.75,0 0,-0.78125 -0.75,0 0,-0.75 -0.75,0 0,-0.75 -0.75,0 0,-0.75 -0.75,0 0,-0.75 -0.75,0 0,-0.71875 -0.71875,0 0,-0.75 -0.75,0 0,-0.71875 -0.71875,0 0,-0.71875 -0.71875,0 0,-0.71875 -0.71875,0 0,-0.71875 -0.6875,0 0,-0.71875 -0.71875,0 0,-0.6875 -0.6875,0 0,-0.71875 -0.6875,0 0,-0.6875 -0.6875,0 0,-0.6875 -0.6875,0 0,-0.6875 -0.6875,0 0,-0.6875 -0.6875,0 0,-0.65625 -0.65625,0 0,-0.6875 -0.65625,0 0,-0.65625 -0.65625,0 0,-0.65625 -0.65625,0 0,-0.65625 -0.65625,0 0,-0.65625 -0.65625,0 0,-0.625 -0.625,0 0,-0.65625 -0.65625,0 0,-0.625 -0.625,0 0,-0.625 -0.625,0 0,-0.625 -0.59375,0 0,-0.625 -0.625,0 0,-0.625 -0.625,0 0,-0.59375 -0.59375,0 0,-0.625 -0.59375,0 0,-0.59375 -0.59375,0 0,-0.59375 -0.59375,0 0,-0.59375 -0.59375,0 0,-0.5625 -0.5625,0 0,-0.59375 -0.59375,0 0,-0.5625 -0.5625,0 0,-0.5625 -0.5625,0 0,-0.59375 -0.5625,0 0,-0.53125 -0.5625,0 0,-0.5625 -0.53125,0 0,-0.5625 -0.5625,0 0,-0.53125 -0.53125,0 0,-0.5625 -0.53125,0 0,-0.53125 -0.53125,0 0,-0.53125 -0.53125,0 0,-0.5 -0.5,0 0,-0.53125 -0.53125,0 0,-0.53125 -0.5,0 0,-0.5 -0.5,0 0,-0.5 -0.5,0 0,-0.5 -0.5,0 0,-0.5 -0.5,0 0,-0.5 -0.46875,0 0,-0.46875 -0.5,0 0,-0.46875 -0.46875,0 0,-0.5 -0.46875,0 0,-0.46875 -0.46875,0 0,-0.46875 -0.46875,0 0,-0.4375 -0.4375,0 0,-0.46875 -0.46875,0 0,-0.4375 -0.4375,0 0,-0.4375 -0.4375,0 0,-0.46875 -0.4375,0 0,-0.40625 -0.4375,0 0,-0.4375 -0.40625,0 0,-0.4375 -0.4375,0 0,-0.40625 -0.40625,0 0,-0.4375 -0.40625,0 0,-0.40625 -0.40625,0 0,-0.40625 -0.40625,0 0,-0.40625 -0.40625,0 0,-0.375 -0.375,0 0,-0.40625 -0.375,0 0,-0.375 -0.40625,0 0,-0.375 -0.375,0 0,-0.375 -0.375,0 0,-0.375 -0.34375,0 0,-0.375 -0.375,0 0,-0.34375 -0.34375,0 0,-0.375 -0.34375,0 0,-0.34375 -0.34375,0 0,-0.34375 -0.34375,0 0,-0.34375 -0.34375,0 0,-0.34375 -0.34375,0 0,-0.3125 -0.3125,0 0,-0.34375 -0.3125,0 0,-0.3125 -0.3125,0 0,-0.3125 -0.3125,0 0,-0.3125 -0.3125,0 0,-0.3125 -0.3125,0 0,-0.28125 -0.28125,0 0,-0.3125 -0.3125,0 0,-0.28125 -0.28125,0 0,-0.28125 -0.28125,0 0,-0.28125 -0.28125,0 0,-0.28125 -0.25,0 0,-0.28125 -0.28125,0 0,-0.25 -0.25,0 0,-0.28125 -0.25,0 0,-0.25 -0.25,0 0,-0.25 -0.25,0 0,-0.25 -0.25,0 0,-0.25 -0.25,0 0,-0.21875 -0.21875,0 0,-0.25 -0.21875,0 0,-0.21875 -0.21875,0 0,-0.21875 -0.21875,0 0,-0.21875 -0.21875,0 0,-0.21875 -0.21875,0 0,-0.1875 -0.1875,0 0,-0.21875 -0.1875,0 0,-0.1875 -0.1875,0 0,-0.1875 -0.1875,0 0,-0.1875 -0.1875,0 0,-0.1875 -0.1875,0 0,-0.15625 -0.15625,0 0,-0.1875 -0.1875,0 0,-0.15625 -0.15625,0 0,-0.15625 -0.15625,0 0,-0.1875 -0.15625,0 0,-0.125 -0.125,0 0,-0.15625 -0.15625,0 0,-0.15625 -0.125,0 0,-0.125 -0.15625,0 0,-0.125 -0.125,0 0,-0.125 -0.125,0 0,-0.125 -0.0937,0 0,-0.125 -0.125,0 0,-0.0937 -0.0937,0 0,-0.125 -0.125,0 0,-0.0937 -0.0937,0 0,-0.0937 -0.0937,0 0,-0.0937 -0.0625,0 0,-0.0937 -0.0937,0 0,-0.0937 -0.0625,0 0,-0.0625 -0.0937,0 0,-0.0625 -0.0625,0 0,-0.0937 -0.0625,0 0,-0.0625 -0.0625,0 0,-0.0312 -0.0312,0 0,-0.0625 -0.0625,0 0,-0.0625 -0.0312,0 0,-0.0312 -0.0312,0 0,-0.0312 -0.0625,0 0,-0.0312 0,-0.0312 -0.0312,0 0,-0.0312 -0.0312,0 0,-0.0312 -31.59375,0 -0.0312,0 z"
         style="font-size:400px;font-style:normal;font-variant:normal;font-weight:normal;font-stretch:normal;line-height:125%;letter-spacing:0px;word-spacing:0px;fill:url(#linearGradient6890);fill-opacity:1;stroke:none;font-family:Cabin;-inkscape-font-specification:Cabin"
         inkscape:connector-curvature="0" />
      <text
         sodipodi:linespacing="125%"
         id="text3005"
         y="934.36218"
         x="47.456249"
         style="font-size:14px;font-style:normal;font-variant:normal;font-weight:normal;font-stretch:normal;line-height:125%;letter-spacing:0px;word-spacing:0px;fill:#ffffff;fill-opacity:1;stroke:none;font-family:Cabin;-inkscape-font-specification:Cabin"
         xml:space="preserve"><tspan
           style="font-size:400px;fill:#ffffff"
           y="934.36218"
           x="47.456249"
           id="tspan3007"
           sodipodi:role="line">e4</tspan></text>
      <path
         d="m 852.14375,1258.3622 -34,0 0,76 -40,0 0,-76 -120.4,0 128.8,-204 31.6,0 0,169.6 34,0 0,34.4 m -74,-34.4 0,-101.6 -61.2,101.6 61.2,0 m -139.4875,12.4 -142,0 c 4.26661,46.6667 28.79992,70 73.6,70 19.99986,0 38.79984,-3.8666 56.4,-11.6 l 4.8,28.4 c -23.20016,10.1333 -45.06681,15.2 -65.6,15.2 -16.53344,0 -31.46675,-2.6667 -44.8,-8 -13.06673,-5.3333 -24.13338,-12.5333 -33.2,-21.6 -9.0667,-9.3333 -16.00002,-20.2666 -20.8,-32.8 -4.80002,-12.8 -7.20001,-26.5333 -7.2,-41.2 -10e-6,-14.1332 2.26665,-27.3332 6.8,-39.6 4.53331,-12.2665 10.9333,-22.7999 19.2,-31.6 8.26662,-9.0665 18.26661,-16.1332 30,-21.2 11.99992,-5.3332 25.33324,-7.9998 40,-8 12.53321,2e-4 23.99987,1.8669 34.4,5.6 10.39985,3.7335 19.19984,9.2002 26.4,16.4 7.46649,7.2001 13.19982,16.0001 17.2,26.4 4.26648,10.1335 6.39981,21.6001 6.4,34.4 -1.9e-4,7.4668 -0.53353,13.8667 -1.6,19.2 m -83.6,-70 c -29.06675,10e-5 -47.46673,15.0668 -55.2,45.2 l 103.2,0 c -1.6e-4,-14.3999 -4.00015,-25.4665 -12,-33.2 -8.00014,-7.9999 -20.00012,-11.9999 -36,-12"
         style="font-size:400px;font-style:normal;font-variant:normal;font-weight:normal;font-stretch:normal;line-height:125%;letter-spacing:0px;word-spacing:0px;fill:#000000;fill-opacity:1;stroke:none;font-family:Cabin;-inkscape-font-specification:Cabin"
         id="path5079"
         inkscape:connector-curvature="0" />
    </g>
  </g>
</svg>
